<svg width="49" height="74" viewBox="0 0 49 74" fill="none" xmlns="http://www.w3.org/2000/svg">
<mask id="mask0_1_906" style="mask-type:luminance" maskUnits="userSpaceOnUse" x="9" y="0" width="32" height="56">
<path d="M29.5109 46.5849C24.3876 48.7821 20.0198 51.7825 16.4784 55.6098C5.33461 41.2928 7.01091 23.0776 21.5072 0.987793C21.6961 8.61881 26.6777 16.368 36.4521 24.2825C44.1016 31.7954 41.7879 39.2374 29.5109 46.5849Z" fill="white"/>
</mask>
<g mask="url(#mask0_1_906)">
<path d="M8.3092 57.145L47.5012 49.7739L37.7504 -2.08398L-1.41797 5.28716L8.3092 57.145Z" fill="url(#paint0_linear_1_906)"/>
</g>
<g opacity="0.65">
<path d="M48.1385 57.5466C47.2414 71.1312 31.4701 73.5882 16.478 55.6093C34.2561 41.9774 48.2094 44.9542 48.1385 57.5466Z" fill="url(#paint1_linear_1_906)"/>
<mask id="mask1_1_906" style="mask-type:luminance" maskUnits="userSpaceOnUse" x="16" y="46" width="33" height="23">
<path d="M48.1385 57.5466C47.2414 71.1312 31.4701 73.5882 16.478 55.6093C34.2561 41.9774 48.2094 44.9542 48.1385 57.5466Z" fill="white"/>
</mask>
<g mask="url(#mask1_1_906)">
<path d="M20.3499 76.1875L52.9312 70.0685L47.1941 39.5444L14.6128 45.687L20.3499 76.1875Z" fill="url(#paint2_linear_1_906)"/>
</g>
</g>
<mask id="mask2_1_906" style="mask-type:luminance" maskUnits="userSpaceOnUse" x="16" y="51" width="32" height="23">
<path d="M46.5331 65.8155C42.0945 78.6913 26.2525 76.8958 16.5017 55.6093C37.231 47.1514 49.9093 53.672 46.5331 65.8155Z" fill="white"/>
</mask>
<g mask="url(#mask2_1_906)">
<path opacity="0.38" d="M21.5545 82.5419L54.183 76.3993L48.2806 45.0483L15.6521 51.2146L21.5545 82.5419Z" fill="url(#paint3_linear_1_906)"/>
</g>
<path fill-rule="evenodd" clip-rule="evenodd" d="M29.5109 46.5851C41.7879 39.214 44.1017 31.7719 36.4522 24.259C26.6778 16.3681 21.6962 8.59537 21.5073 0.964355C18.745 5.19331 16.4548 9.25689 14.6133 13.2023C16.7618 18.5653 21.2476 23.9992 28.0708 29.5039C34.3745 35.6938 33.9259 41.8128 26.7486 47.8845C27.6222 47.4356 28.5666 47.0104 29.5109 46.5851Z" fill="#39D4FF"/>
<path fill-rule="evenodd" clip-rule="evenodd" d="M48.1389 57.5475C48.2097 45.0969 34.5869 42.0492 17.0686 55.1614C30.3608 48.5699 39.8047 52.4208 39.7338 62.7924C39.5922 64.9423 39.0728 66.8323 38.2464 68.3916C43.8183 68.0372 47.7139 64.0918 48.1389 57.5475Z" fill="url(#paint4_linear_1_906)"/>
<mask id="mask3_1_906" style="mask-type:luminance" maskUnits="userSpaceOnUse" x="13" y="4" width="34" height="52">
<path d="M31.4703 50.459C25.9457 51.1914 20.9404 52.916 16.4782 55.6329C9.60781 38.8589 16.1241 21.7541 36.0034 4.36572C34.1382 11.7605 36.8533 20.5728 44.1487 30.8262C49.5081 40.1347 45.2819 46.6789 31.4703 50.459Z" fill="white"/>
</mask>
<g mask="url(#mask3_1_906)">
<path opacity="0.28" d="M12.8899 56.3181L51.1847 49.0887L42.5436 3.13721L4.24878 10.3666L12.8899 56.3181Z" fill="url(#paint5_linear_1_906)"/>
</g>
<path d="M11.6855 50.1763C8.92318 46.5616 7.08164 42.4035 6.23169 38.0564C5.35814 33.5676 5.57061 28.8661 6.91636 24.3537L6.42057 24.2119C5.05121 28.7953 4.86233 33.5912 5.73588 38.1509C6.56222 42.4508 8.35655 46.5852 11.048 50.1999C10.4342 50.318 9.89118 50.6724 9.56064 51.2394C9.51342 51.3339 9.46621 51.4284 9.41899 51.5229C6.58584 49.1604 4.36653 46.2072 2.87912 42.9233C1.32089 39.4976 0.565388 35.6939 0.730655 31.8193L0.21124 31.7957C0.0459731 35.7411 0.825088 39.6157 2.40693 43.1123C3.96517 46.538 6.2789 49.6093 9.27732 52.0427C9.2065 52.6333 9.37177 53.2476 9.77314 53.7201C10.3634 54.4289 11.3314 54.6887 12.2049 54.358C13.5507 58.0908 16.1949 60.0754 20.1377 60.3352C23.3959 62.4379 26.6304 64.8713 29.8649 67.6355C30.3135 67.5882 30.6676 67.2339 30.7385 66.8086C30.8329 66.3597 30.6204 65.9344 30.2191 65.6982C26.2526 63.3593 23.0417 61.0676 20.5391 58.8468C17.9421 55.114 15.6283 52.846 13.5979 52.0427C13.4798 51.1213 12.7715 50.3889 11.8744 50.1999C11.8036 50.1999 11.7563 50.1999 11.6855 50.1763Z" fill="#023473"/>
<defs>
<linearGradient id="paint0_linear_1_906" x1="35.5805" y1="-6.08467" x2="16.1814" y2="45.8672" gradientUnits="userSpaceOnUse">
<stop stop-color="#1400FF"/>
<stop offset="1" stop-color="#05ADC0"/>
</linearGradient>
<linearGradient id="paint1_linear_1_906" x1="17.5449" y1="61.2301" x2="48.0548" y2="55.4939" gradientUnits="userSpaceOnUse">
<stop stop-color="#023473"/>
<stop offset="1" stop-color="#0388A6"/>
</linearGradient>
<linearGradient id="paint2_linear_1_906" x1="43.4615" y1="68.0547" x2="20.5749" y2="44.0038" gradientUnits="userSpaceOnUse">
<stop stop-color="#023473"/>
<stop offset="1" stop-color="#0388A6"/>
</linearGradient>
<linearGradient id="paint3_linear_1_906" x1="40.4548" y1="74.0639" x2="24.697" y2="44.8356" gradientUnits="userSpaceOnUse">
<stop stop-color="#023473"/>
<stop offset="1" stop-color="#0388A6"/>
</linearGradient>
<linearGradient id="paint4_linear_1_906" x1="40.1298" y1="68.5661" x2="29.0281" y2="47.9739" gradientUnits="userSpaceOnUse">
<stop stop-color="#0062DD"/>
<stop offset="1" stop-color="#0388A6"/>
</linearGradient>
<linearGradient id="paint5_linear_1_906" x1="49.4602" y1="-0.107704" x2="16.7928" y2="44.6939" gradientUnits="userSpaceOnUse">
<stop stop-color="#0803FE"/>
<stop offset="1" stop-color="#0388A6"/>
</linearGradient>
</defs>
</svg>
