<svg width="137" height="102" viewBox="0 0 137 102" fill="none" xmlns="http://www.w3.org/2000/svg">
<path d="M136.891 89.636H0V89.7044H136.891V89.636Z" fill="#EBEBEB"/>
<path d="M97.926 91.5005H88.8584V91.5689H97.926V91.5005Z" fill="#EBEBEB"/>
<path d="M119.714 92.1001H117.334V92.1685H119.714V92.1001Z" fill="#EBEBEB"/>
<path d="M103.454 94.0411H98.2V94.1096H103.454V94.0411Z" fill="#EBEBEB"/>
<path d="M68.4455 93.1157H56.6208V93.1842H68.4455V93.1157Z" fill="#EBEBEB"/>
<path d="M54.1813 93.1157H52.4482V93.1842H54.1813V93.1157Z" fill="#EBEBEB"/>
<path d="M46.8139 91.9604H21.166V92.0289H46.8139V91.9604Z" fill="#EBEBEB"/>
<path d="M64.8862 77.4254H12.0217C11.6076 77.4246 11.2107 77.2596 10.9181 76.9665C10.6255 76.6734 10.4612 76.2762 10.4612 75.8621V1.5496C10.4648 1.13784 10.6307 0.744132 10.9229 0.453989C11.2151 0.163847 11.61 0.000705367 12.0217 0H64.8862C65.3008 0 65.6984 0.164704 65.9916 0.457878C66.2848 0.751052 66.4495 1.14868 66.4495 1.56329V75.8621C66.4495 76.2767 66.2848 76.6743 65.9916 76.9675C65.6984 77.2607 65.3008 77.4254 64.8862 77.4254ZM12.0217 0.0547565C11.6258 0.0554817 11.2462 0.213294 10.9665 0.493553C10.6867 0.773813 10.5296 1.15362 10.5296 1.5496V75.8621C10.5296 76.2581 10.6867 76.6379 10.9665 76.9181C11.2462 77.1984 11.6258 77.3562 12.0217 77.3569H64.8862C65.2824 77.3562 65.6622 77.1985 65.9424 76.9183C66.2226 76.6381 66.3803 76.2583 66.381 75.8621V1.5496C66.3803 1.15337 66.2226 0.773567 65.9424 0.493386C65.6622 0.213205 65.2824 0.0554802 64.8862 0.0547565H12.0217Z" fill="#EBEBEB"/>
<path d="M124.108 77.4254H71.2405C70.8261 77.4247 70.4289 77.2597 70.1359 76.9667C69.8429 76.6737 69.678 76.2765 69.6772 75.8621V1.5496C69.6816 1.13759 69.8481 0.743885 70.1407 0.453818C70.4334 0.163751 70.8285 0.000697674 71.2405 0H124.108C124.519 0.00142489 124.913 0.164885 125.205 0.45495C125.496 0.745016 125.662 1.13832 125.666 1.5496V75.8621C125.666 76.2757 125.502 76.6725 125.21 76.9656C124.918 77.2586 124.521 77.4239 124.108 77.4254ZM71.2405 0.0547565C70.8443 0.0554802 70.4645 0.213205 70.1843 0.493386C69.9041 0.773567 69.7464 1.15337 69.7457 1.5496V75.8621C69.7464 76.2583 69.9041 76.6381 70.1843 76.9183C70.4645 77.1985 70.8443 77.3562 71.2405 77.3569H124.108C124.504 77.3562 124.884 77.1985 125.164 76.9183C125.444 76.6381 125.602 76.2583 125.603 75.8621V1.5496C125.602 1.15337 125.444 0.773567 125.164 0.493386C124.884 0.213205 124.504 0.0554802 124.108 0.0547565H71.2405Z" fill="#EBEBEB"/>
<path d="M32.1146 69.1928C30.6855 68.7082 29.6506 67.3284 30.554 65.9074C32.0598 63.5693 28.2953 63.0711 29.3521 59.1587C30.8415 53.6338 35.4657 58.4222 36.6156 53.1191C37.4369 49.2615 43.931 46.7345 44.1829 51.8132C44.4567 57.3764 47.2492 53.7433 47.868 59.9253C48.2951 64.2018 42.2116 64.8233 44.035 66.1593C45.3629 67.1367 46.1459 68.8369 44.2951 69.9922C41.7736 71.5774 44.1528 72.8149 42.4389 73.921C40.725 75.0271 40.4458 73.2639 37.7846 74.1236C35.4054 74.8902 33.3877 72.5384 33.8613 71.0682C34.2966 69.713 33.5519 69.6801 32.1146 69.1928Z" fill="#E6E6E6"/>
<path d="M45.8693 71.7307C45.8693 71.7307 45.675 89.6305 38.1706 89.6305C30.6663 89.6305 30.4746 71.7307 30.4746 71.7307H45.8693Z" fill="#F0F0F0"/>
<path d="M76.8586 47.3751L119.497 47.3751V7.915L76.8586 7.915V47.3751Z" fill="#E6E6E6"/>
<path d="M75.8374 47.3751L119.021 47.3751V7.915L75.8374 7.915V47.3751Z" fill="#F0F0F0"/>
<path d="M117.586 45.7626V9.5249L77.2721 9.5249V45.7626H117.586Z" fill="#FAFAFA"/>
<path d="M94.022 45.7626L101.143 9.5249H110.476L103.355 45.7626H94.022Z" fill="white"/>
<path d="M104.809 45.7626L111.927 9.5249H116.144L109.023 45.7626H104.809Z" fill="white"/>
<path d="M82.3506 45.7626L89.4716 9.5249H91.0185L83.8974 45.7626H82.3506Z" fill="white"/>
<path d="M77.45 45.7598V9.52209H77.2665V45.7598H77.45Z" fill="#E6E6E6"/>
<path opacity="0.7" d="M120.573 7.84938V35.5478H116.436C116.436 35.5478 109.003 18.6364 107.322 8.66251C107.282 8.42384 107.293 8.17914 107.357 7.94559C107.421 7.71204 107.535 7.4953 107.692 7.31058C107.849 7.12587 108.044 6.97765 108.263 6.87634C108.483 6.77503 108.723 6.72308 108.965 6.72414H119.467C119.762 6.72916 120.044 6.84993 120.251 7.06041C120.457 7.27089 120.573 7.55424 120.573 7.84938Z" fill="#E6E6E6"/>
<path opacity="0.7" d="M120.573 51.23V36.8099H116.436C116.436 36.8099 113.86 45.2972 112.877 51.23H120.573Z" fill="#E6E6E6"/>
<path d="M116.557 36.8099H120.423C120.651 36.8099 120.836 36.6248 120.836 36.3965V35.9612C120.836 35.7329 120.651 35.5478 120.423 35.5478H116.557C116.329 35.5478 116.144 35.7329 116.144 35.9612V36.3965C116.144 36.6248 116.329 36.8099 116.557 36.8099Z" fill="#E0E0E0"/>
<path opacity="0.7" d="M74.6658 7.84938V35.5478H78.8026C78.8026 35.5478 86.2358 18.6364 87.925 8.66251C87.9658 8.42384 87.9538 8.17914 87.8899 7.94559C87.826 7.71204 87.7118 7.4953 87.5553 7.31058C87.3988 7.12587 87.2037 6.97765 86.9838 6.87634C86.7639 6.77503 86.5244 6.72308 86.2823 6.72414H75.791C75.4926 6.72414 75.2064 6.84269 74.9953 7.05371C74.7843 7.26474 74.6658 7.55095 74.6658 7.84938Z" fill="#E6E6E6"/>
<path opacity="0.7" d="M74.6658 51.23V36.8099H78.8026C78.8026 36.8099 81.3762 45.2972 82.3618 51.23H74.6658Z" fill="#E6E6E6"/>
<path d="M78.682 35.5477H74.8162C74.5879 35.5477 74.4028 35.7328 74.4028 35.9611V36.3965C74.4028 36.6248 74.5879 36.8099 74.8162 36.8099H78.682C78.9104 36.8099 79.0954 36.6248 79.0954 36.3965V35.9611C79.0954 35.7328 78.9104 35.5477 78.682 35.5477Z" fill="#E0E0E0"/>
<path d="M61.0915 89.636H71.4404V62.7862H61.0915V89.636Z" fill="#E6E6E6"/>
<path d="M63.8541 89.636H61.0889V85.0037H66.7507L63.8541 89.636Z" fill="#F5F5F5"/>
<path d="M110.597 89.636H120.946V62.7862H110.597V89.636Z" fill="#E6E6E6"/>
<path d="M61.0889 88.0426H113.009V62.789L61.0889 62.789V88.0426Z" fill="#F5F5F5"/>
<path d="M63.2325 70.4221H110.865V65.1299H63.2325V70.4221Z" fill="#F0F0F0"/>
<path d="M110.246 89.636H113.009V85.0037H107.347L110.246 89.636Z" fill="#F5F5F5"/>
<path d="M63.2325 78.0605H110.865V72.7684H63.2325V78.0605Z" fill="#F0F0F0"/>
<path d="M63.2325 85.6991H110.865V80.4069H63.2325V85.6991Z" fill="#F0F0F0"/>
<path d="M36.8262 39.712H59.0491V15.5782L36.8262 15.5782V39.712Z" fill="#E6E6E6"/>
<path d="M34.9453 39.712H58.5151V15.5782L34.9453 15.5782V39.712Z" fill="#F5F5F5"/>
<path d="M57.0122 38.2062V17.0785H36.4485V38.2062H57.0122Z" fill="white"/>
<path d="M53.3873 30.4335C53.3877 29.7007 53.2436 28.975 52.9633 28.2979C52.6831 27.6208 52.2721 27.0055 51.7539 26.4873C51.2357 25.9691 50.6205 25.5582 49.9433 25.2779C49.2662 24.9976 48.5405 24.8535 47.8077 24.8539H40.0679C40.0679 26.3337 40.6557 27.7529 41.7021 28.7993C42.7485 29.8457 44.1677 30.4335 45.6475 30.4335H53.3873Z" fill="#F5F5F5"/>
<path d="M18.1626 23.1455H31.3862L31.3862 8.46535L18.1626 8.46535V23.1455Z" fill="#E6E6E6"/>
<path d="M16.2846 23.1455L30.8552 23.1455L30.8552 8.46535L16.2846 8.46535V23.1455Z" fill="#F5F5F5"/>
<path d="M29.3494 21.6425V9.9657H17.7848V21.6425H29.3494Z" fill="white"/>
<path d="M26.9875 15.8053L23.5706 12.3884L20.1536 15.8053L23.5706 19.2222L26.9875 15.8053Z" fill="#F5F5F5"/>
<path d="M68.4453 102C97.7625 102 121.529 100.612 121.529 98.9008C121.529 97.1892 97.7625 95.8016 68.4453 95.8016C39.1281 95.8016 15.3618 97.1892 15.3618 98.9008C15.3618 100.612 39.1281 102 68.4453 102Z" fill="#F5F5F5"/>
<path d="M26.0093 98.2109H110.882L102.394 83.5116H34.4965L26.0093 98.2109Z" fill="#407BFF"/>
<path opacity="0.4" d="M26.0093 98.2109H110.882L102.394 83.5116H34.4965L26.0093 98.2109Z" fill="white"/>
<path d="M34.4963 83.5115H102.394L93.9069 68.8094H42.9836L34.4963 83.5115Z" fill="#407BFF"/>
<path opacity="0.3" d="M34.4963 83.5115H102.394L93.9069 68.8094H42.9836L34.4963 83.5115Z" fill="white"/>
<path d="M51.4709 54.1101L42.9836 68.8094H93.907L85.4198 54.1101H51.4709Z" fill="#407BFF"/>
<path opacity="0.2" d="M51.4709 54.1101L42.9836 68.8094H93.907L85.4198 54.1101H51.4709Z" fill="white"/>
<path d="M76.9326 39.4108H59.9582L51.4709 54.1101H85.4198L76.9326 39.4108Z" fill="#407BFF"/>
<path opacity="0.1" d="M76.9326 39.4108H59.9582L51.4709 54.1101H85.4198L76.9326 39.4108Z" fill="black"/>
<path d="M49.4148 18.3187C49.2751 18.4227 49.0862 18.5706 48.9192 18.7075C48.7522 18.8444 48.5825 18.9813 48.4155 19.1428C48.0869 19.444 47.7611 19.7506 47.4545 20.0737C46.8483 20.7159 46.3073 21.4165 45.8392 22.1653C45.7379 22.3323 45.5654 22.6143 45.5955 22.576C45.5607 22.6724 45.5503 22.7758 45.5654 22.8772C45.6234 23.2581 45.7408 23.6276 45.9131 23.9723C46.3152 24.7884 46.783 25.5703 47.3121 26.3104L46.5428 27.0496C45.7476 26.3996 45.0497 25.6389 44.4703 24.7909C44.1383 24.3129 43.8936 23.78 43.7475 23.2167C43.6548 22.847 43.6492 22.4609 43.7311 22.0887C43.7542 21.9801 43.7872 21.8738 43.8296 21.7711C43.859 21.6961 43.8928 21.623 43.9309 21.5521L44.1034 21.1989C44.5836 20.2718 45.1787 19.409 45.8748 18.6308C46.2159 18.2471 46.5768 17.8816 46.9562 17.5357C47.1478 17.3632 47.345 17.1935 47.5448 17.0292C47.7447 16.8649 47.9418 16.7171 48.1964 16.5419L49.4148 18.3187Z" fill="#B55B52"/>
<path d="M49.5981 15.1455C48.2511 15.2058 46.2224 17.9162 46.2224 17.9162L48.388 20.4843C48.388 20.4843 51.1258 19.0086 51.427 17.0565C51.5721 16.0819 50.9232 15.0853 49.5981 15.1455Z" fill="#407BFF"/>
<path d="M46.9728 25.99L48.5771 27.3589L47.0713 27.7395C47.0713 27.7395 46.135 27.1919 46.4088 26.428L46.9728 25.99Z" fill="#B55B52"/>
<path d="M48.588 28.1612L47.805 28.9195L47.0713 27.7532L48.5771 27.3727L48.588 28.1612Z" fill="#B55B52"/>
<path d="M59.7007 11.685C59.635 11.8246 59.6569 11.9779 59.75 12.0245C59.8431 12.071 59.969 11.9916 60.0238 11.852C60.0785 11.7124 60.0676 11.559 59.9772 11.5125C59.8869 11.466 59.7664 11.5426 59.7007 11.685Z" fill="#263238"/>
<path d="M59.9417 11.4988L60.3277 11.57C60.3277 11.57 60.0293 11.7479 59.9417 11.4988Z" fill="#263238"/>
<path d="M59.7555 11.8821C59.7311 12.2682 59.7587 12.6559 59.8376 13.0347C59.7405 13.0497 59.6413 13.0435 59.5468 13.0166C59.4522 12.9896 59.3647 12.9426 59.29 12.8786L59.7555 11.8821Z" fill="#A02724"/>
<path d="M60.3304 10.8362C60.3158 10.8327 60.3025 10.8251 60.2921 10.8143C60.2094 10.7307 60.1087 10.6672 59.9976 10.6288C59.8865 10.5903 59.7681 10.5779 59.6514 10.5926C59.6396 10.5954 59.6272 10.5957 59.6152 10.5936C59.6032 10.5915 59.5917 10.587 59.5815 10.5804C59.5712 10.5737 59.5624 10.5651 59.5556 10.5549C59.5489 10.5448 59.5442 10.5334 59.5419 10.5214C59.537 10.4974 59.5418 10.4725 59.5551 10.452C59.5684 10.4315 59.5892 10.4171 59.6131 10.4119C59.7593 10.3918 59.9082 10.4062 60.0479 10.4537C60.1876 10.5012 60.3143 10.5806 60.418 10.6856C60.4265 10.694 60.4333 10.7041 60.4379 10.7151C60.4426 10.7262 60.4449 10.738 60.4449 10.75C60.4449 10.762 60.4426 10.7738 60.4379 10.7848C60.4333 10.7959 60.4265 10.8059 60.418 10.8143C60.4065 10.8251 60.3924 10.8328 60.377 10.8366C60.3617 10.8404 60.3457 10.8403 60.3304 10.8362Z" fill="#263238"/>
<path d="M54.3812 11.8137C54.4195 12.9882 53.9158 14.8828 52.9958 15.4824C52.9958 15.4824 53.59 16.7527 55.7035 17.1607C58.028 17.6124 57.004 16.2298 57.004 16.2298C55.7857 15.6823 55.9719 14.7514 56.3387 13.9164L54.3812 11.8137Z" fill="#B55B52"/>
<path d="M60.3961 18.3597C60.5029 18.9566 60.6151 19.5918 60.7465 20.205C60.878 20.8183 60.9984 21.4453 61.1435 22.0585C61.2886 22.6718 61.4392 23.2823 61.6007 23.8874C61.6801 24.1913 61.7705 24.4897 61.8581 24.7881L62.0908 25.5137C62.1867 25.6655 62.3147 25.7945 62.4659 25.8915C62.6859 26.0419 62.9186 26.1728 63.1613 26.283C63.7083 26.5359 64.2729 26.7491 64.8505 26.9209C65.4391 27.1098 66.0497 27.2713 66.6657 27.4164C67.2817 27.5615 67.9059 27.6902 68.5192 27.8244L68.4206 28.8894C67.0901 28.8697 65.7637 28.7351 64.4563 28.4869C63.7769 28.3602 63.1093 28.1771 62.4604 27.9394C62.1061 27.8087 61.7651 27.6446 61.4419 27.4493C61.0343 27.2177 60.6879 26.892 60.4317 26.4993C60.3929 26.4382 60.3572 26.3751 60.3249 26.3104L60.2784 26.2063L60.2428 26.1187L60.1524 25.8833L59.9745 25.4151C59.8622 25.1002 59.7472 24.7881 59.6432 24.4705C59.4324 23.8408 59.2407 23.2057 59.0765 22.5541C58.7285 21.275 58.4542 19.9769 58.2551 18.6664L60.3961 18.3597Z" fill="#B55B52"/>
<path d="M75.6266 20.884L64.8149 33.9708L81.5539 36.7907L75.6266 20.884Z" fill="#407BFF"/>
<path d="M68.1716 27.9258L69.7075 27.4028L69.8855 28.8374C69.8855 28.8374 68.4837 29.5876 67.969 28.5637L68.1716 27.9258Z" fill="#B55B52"/>
<path d="M70.5015 27.8682L71.0107 29.2179L69.8745 28.8401L69.6965 27.4055L70.5015 27.8682Z" fill="#B55B52"/>
<path d="M48.9055 71.8101L50.8466 71.9524L51.4243 67.4953L49.4832 67.3529L48.9055 71.8101Z" fill="#B55B52"/>
<path d="M36.6182 66.4331L38.4032 67.2626L40.7933 63.479L39.0083 62.6494L36.6182 66.4331Z" fill="#B55B52"/>
<path d="M38.8768 66.8355L37.1219 65.4857C37.0937 65.4603 37.0571 65.4463 37.0192 65.4463C36.9813 65.4463 36.9447 65.4603 36.9165 65.4857L35.6818 66.6822C35.6519 66.7142 35.6291 66.7522 35.6149 66.7936C35.6006 66.8351 35.5952 66.879 35.5991 66.9227C35.603 66.9663 35.616 67.0087 35.6373 67.0469C35.6587 67.0852 35.6878 67.1186 35.7229 67.1449C36.3443 67.6048 36.6674 67.7965 37.4395 68.3878C37.9131 68.752 38.5729 69.3351 39.2273 69.8389C39.8816 70.3426 40.4018 69.7376 40.1746 69.472C39.1451 68.2756 39.2218 67.7746 39.0794 67.1202C39.0448 67.0057 38.9736 66.9057 38.8768 66.8355Z" fill="#263238"/>
<path d="M50.9699 71.676H48.7797C48.7415 71.6756 48.7044 71.6889 48.6753 71.7135C48.6461 71.7382 48.6268 71.7725 48.6209 71.8102L48.3279 73.5378C48.3216 73.5808 48.3247 73.6247 48.3369 73.6665C48.3492 73.7082 48.3704 73.7469 48.399 73.7796C48.4276 73.8124 48.463 73.8386 48.5027 73.8564C48.5424 73.8742 48.5855 73.8832 48.6291 73.8827C49.3902 73.869 49.7571 73.8252 50.718 73.8252C51.3094 73.8252 52.5277 73.8855 53.3436 73.8855C54.1595 73.8855 54.2224 73.0805 53.8911 73.0066C52.3771 72.6781 51.7885 72.2263 51.2875 71.7965C51.1989 71.7206 51.0866 71.678 50.9699 71.676Z" fill="#263238"/>
<path opacity="0.2" d="M51.4243 67.498L51.104 69.973L49.1848 69.6527L49.4805 67.3529L51.4243 67.498Z" fill="black"/>
<path opacity="0.2" d="M39.0083 62.6521L40.7933 63.4817L39.7338 65.1572L37.9871 64.2647L39.0083 62.6521Z" fill="black"/>
<path d="M49.0508 26.9702L56.8399 28.4733C60.5195 17.6397 59.6379 17.2893 59.6379 17.2893C59.0664 16.9801 58.4767 16.7058 57.872 16.4679L57.768 16.4269C57.2697 16.2462 57.1657 16.2188 56.4976 16.0244C55.3505 15.7506 54.2827 15.5316 52.9631 15.3427C52.8782 15.3427 52.7934 15.3153 52.7112 15.3071C52.4703 15.277 52.2321 15.2524 52.0049 15.2304C51.8488 15.2113 51.6955 15.2031 51.5477 15.1921L51.0439 15.1647C50.1924 15.1237 49.5847 15.1346 49.5847 15.1346C50.0282 21.9025 49.7024 23.8463 49.0508 26.9702Z" fill="#407BFF"/>
<path opacity="0.2" d="M58.0635 20.5938C57.8403 21.7267 57.9187 22.8984 58.2908 23.9915C58.9369 21.8724 59.3065 20.4323 59.5036 19.433C58.9068 19.3563 58.2716 19.548 58.0635 20.5938Z" fill="black"/>
<path d="M59.5721 17.2619C60.8698 18.1079 61.6994 19.9997 61.9184 21.0757L58.9068 23.5397C58.9068 23.5397 57.2641 19.8738 57.8117 18.9375C58.362 17.9519 59.082 16.9389 59.5721 17.2619Z" fill="#407BFF"/>
<path d="M55.1669 8.939C54.466 10.7268 54.1292 11.4687 54.5892 12.7966C55.2791 14.7924 57.62 15.3345 58.8383 13.8068C59.9334 12.4379 60.9026 9.74118 59.5282 8.20526C59.2405 7.86377 58.8688 7.60318 58.4496 7.44923C58.0305 7.29527 57.5785 7.25326 57.1381 7.32734C56.6978 7.40142 56.2844 7.58903 55.9387 7.87166C55.593 8.15429 55.327 8.52217 55.1669 8.939Z" fill="#B55B52"/>
<path d="M58.4769 10.8965C58.3898 11.2435 58.4128 11.609 58.5426 11.9424C58.7206 12.4133 59.0902 12.4023 59.2682 12.0683C59.4461 11.7343 59.5419 11.1594 59.249 10.787C58.9561 10.4147 58.5892 10.5132 58.4769 10.8965Z" fill="#B55B52"/>
<path d="M55.3888 5.88635C54.8719 5.81486 54.3458 5.9135 53.8899 6.16737C53.4341 6.42123 53.0732 6.81654 52.8618 7.29359C52.202 8.62143 51.5695 10.3736 50.625 10.0095C50.8029 10.2833 51.3642 10.5872 51.5558 10.4612C50.9179 11.0991 50.792 11.6166 50.6551 12.9253C50.4854 14.5433 49.5901 14.1874 49.5901 14.1874C49.5901 14.1874 50.6359 15.8821 54.0609 16.4817C57.1054 17.0293 58.5154 16.3338 58.926 15.7644C58.5044 15.6275 57.8473 14.1217 58.425 13.2675C59.0027 12.4133 60.002 10.0506 59.8377 9.10328C60.2073 9.68917 60.2265 10.62 60.5359 9.6837C60.8452 8.74737 60.9849 7.76723 59.8377 6.60366C58.8165 5.55507 55.835 5.0431 55.3888 5.88635Z" fill="#263238"/>
<path d="M54.7837 28.0817C54.7837 28.0817 50.9891 40.7934 49.1356 48.1033C47.1808 55.8212 40.5197 64.8861 40.5197 64.8861L38.0557 63.5172C38.0557 63.5172 42.0967 54.8575 43.9912 47.6543C47.8242 33.0316 45.9871 29.9324 49.0535 26.9619L54.7837 28.0817Z" fill="#263238"/>
<path d="M40.7496 65.1271L37.6887 63.4187L38.135 62.5153L41.7462 64.1771L40.7496 65.1271Z" fill="#407BFF"/>
<path opacity="0.2" d="M53.0013 30.7867C50.5126 32.7032 50.3456 40.0213 50.4031 43.3259C51.6679 38.7072 53.1655 33.5683 54.0416 30.5923C53.8034 30.3897 53.4585 30.4335 53.0013 30.7867Z" fill="black"/>
<path d="M39.6271 67.6432C39.6051 67.6516 39.5821 67.6571 39.5587 67.6596C39.3123 67.6815 38.9919 67.3448 38.8249 67.1394C38.8203 67.1321 38.8179 67.1235 38.8179 67.1148C38.8179 67.1061 38.8203 67.0976 38.8249 67.0902C38.8305 67.082 38.8388 67.0761 38.8484 67.0736C38.8579 67.0711 38.8681 67.0721 38.8769 67.0765C38.9591 67.0765 39.6654 67.1504 39.7804 67.3694C39.7944 67.3931 39.8018 67.42 39.8018 67.4475C39.8018 67.4749 39.7944 67.5019 39.7804 67.5255C39.7453 67.5821 39.6908 67.6239 39.6271 67.6432ZM38.97 67.1696C39.2027 67.4433 39.4163 67.5802 39.5505 67.5693C39.579 67.5656 39.6061 67.5545 39.6291 67.5373C39.6521 67.52 39.6703 67.4971 39.6819 67.4707C39.6879 67.4603 39.691 67.4485 39.691 67.4365C39.691 67.4245 39.6879 67.4127 39.6819 67.4023C39.6244 67.2873 39.252 67.2052 38.97 67.1696Z" fill="#407BFF"/>
<path d="M56.722 28.4733C56.722 28.4733 57.2066 43.8461 56.1197 49.6338C54.9917 55.657 51.5502 69.3461 51.5502 69.3461L48.7522 68.9929C48.7522 68.9929 50.5208 55.1533 51.2737 49.1711C52.0951 42.6469 51.0191 27.3672 51.0191 27.3672L56.722 28.4733Z" fill="#263238"/>
<path d="M52.1473 69.5213L48.1555 69.0066L48.2048 68.0593L52.547 68.2482L52.1473 69.5213Z" fill="#407BFF"/>
<path d="M39.4574 67.0573C39.2657 67.1354 39.0589 67.1691 38.8523 67.1558C38.8445 67.1546 38.8372 67.1515 38.831 67.1467C38.8248 67.1419 38.8199 67.1356 38.8167 67.1284C38.8133 67.1212 38.8115 67.1132 38.8115 67.1052C38.8115 67.0971 38.8133 67.0892 38.8167 67.0819C38.8331 67.0655 39.1672 66.6329 39.4464 66.6137C39.4829 66.6098 39.5199 66.6141 39.5545 66.6264C39.5891 66.6388 39.6205 66.6588 39.6463 66.6849C39.6753 66.7076 39.6956 66.7397 39.7035 66.7756C39.7115 66.8116 39.7068 66.8492 39.6901 66.882C39.6346 66.9651 39.5526 67.0269 39.4574 67.0573ZM38.9509 67.0709C39.1891 67.0709 39.5559 66.9614 39.6134 66.841C39.6134 66.8218 39.6298 66.7917 39.586 66.7506C39.5698 66.734 39.5501 66.7212 39.5283 66.7131C39.5065 66.7051 39.4832 66.702 39.4601 66.7041C39.2931 66.715 39.0713 66.9341 38.9509 67.0764V67.0709Z" fill="#407BFF"/>
<path d="M51.6899 72.0045C51.4847 72.0008 51.2803 71.9779 51.0794 71.9361C51.0701 71.9344 51.0616 71.9297 51.0552 71.9228C51.0488 71.9159 51.0448 71.9071 51.0438 71.8977C51.0427 71.8884 51.0445 71.879 51.0489 71.8707C51.0533 71.8623 51.0601 71.8556 51.0684 71.8512C51.1587 71.8047 51.9445 71.4077 52.1772 71.5418C52.1995 71.553 52.2183 71.5703 52.2313 71.5915C52.2444 71.6128 52.2512 71.6373 52.2511 71.6623C52.2565 71.7041 52.2512 71.7465 52.2359 71.7857C52.2206 71.8249 52.1957 71.8597 52.1635 71.8868C52.0237 71.9789 51.8566 72.0205 51.6899 72.0045ZM51.2354 71.8704C51.6625 71.9416 51.9828 71.9224 52.1033 71.8184C52.1235 71.7997 52.1392 71.7767 52.1491 71.7511C52.1591 71.7255 52.1631 71.6979 52.1608 71.6705C52.1606 71.6607 52.158 71.6511 52.1532 71.6425C52.1484 71.6339 52.1416 71.6266 52.1334 71.6212C52.0184 71.561 51.5585 71.7307 51.2354 71.8813V71.8704Z" fill="#407BFF"/>
<path d="M51.0902 71.947C51.0813 71.9497 51.0717 71.9497 51.0628 71.947C51.056 71.9428 51.0505 71.9367 51.0471 71.9294C51.0437 71.922 51.0425 71.9139 51.0437 71.9059C51.0437 71.8703 51.1367 71.0846 51.5721 71.0846H51.6104C51.7363 71.0983 51.7719 71.1612 51.7801 71.2133C51.8157 71.4323 51.3448 71.8512 51.1094 71.9579L51.0902 71.947ZM51.5748 71.1613C51.301 71.1613 51.1833 71.6212 51.1477 71.8183C51.3914 71.676 51.709 71.3447 51.6953 71.2133C51.6953 71.2133 51.6953 71.1695 51.6049 71.1613H51.5748Z" fill="#407BFF"/>
<path d="M49.0069 26.4938L48.5415 27.1208C48.5059 27.1673 48.5607 27.2358 48.651 27.2522L56.8179 28.8347C56.8891 28.8484 56.9521 28.8347 56.963 28.7826L57.1492 28.1037C57.1629 28.0544 57.1081 28.0024 57.0315 27.9887L49.1438 26.461C49.1201 26.4544 49.0951 26.4539 49.0711 26.4597C49.0472 26.4654 49.0251 26.4772 49.0069 26.4938Z" fill="#407BFF"/>
<path opacity="0.3" d="M49.0069 26.4938L48.5415 27.1208C48.5059 27.1673 48.5607 27.2358 48.651 27.2522L56.8179 28.8347C56.8891 28.8484 56.9521 28.8347 56.963 28.7826L57.1492 28.1037C57.1629 28.0544 57.1081 28.0024 57.0315 27.9887L49.1438 26.461C49.1201 26.4544 49.0951 26.4539 49.0711 26.4597C49.0472 26.4654 49.0251 26.4772 49.0069 26.4938Z" fill="black"/>
<path d="M49.9241 27.5752L49.7133 27.5369C49.6722 27.5369 49.6421 27.4986 49.6503 27.4739L49.8994 26.5924C49.8994 26.5677 49.946 26.5513 49.987 26.5595L50.2006 26.6006C50.2416 26.6006 50.269 26.6362 50.2635 26.6635L50.0144 27.5451C50.0062 27.5698 49.9679 27.5835 49.9241 27.5752Z" fill="#263238"/>
<path d="M55.2574 28.6211L55.0466 28.5801C55.0055 28.5801 54.9781 28.5445 54.9836 28.5198L55.2327 27.6383C55.2327 27.6136 55.2793 27.5972 55.3204 27.6054L55.5339 27.6465C55.575 27.6465 55.6024 27.6821 55.5969 27.7094L55.3477 28.591C55.3423 28.6157 55.3039 28.6293 55.2574 28.6211Z" fill="#263238"/>
<path d="M43.5913 98.6981H44.2703L46.2087 89.1486L46.5481 87.4758L48.6617 77.0721H56.7657L61.1462 98.7009H61.8252L57.3488 76.6752C57.3358 76.5983 57.2959 76.5285 57.2362 76.4784C57.1766 76.4282 57.101 76.4009 57.023 76.4014H48.3907C48.3127 76.4009 48.2372 76.4282 48.1775 76.4784C48.1178 76.5285 48.0779 76.5983 48.0649 76.6752L46.2087 85.814L45.8692 87.484L43.5913 98.6981Z" fill="#263238"/>
<path d="M30.5813 98.6982H31.2603L35.6408 77.0695H43.742L45.8556 87.4731L46.1951 89.1405L48.1334 98.69H48.8124L46.5345 87.4649L46.1951 85.8003L44.3525 76.6725C44.3395 76.5956 44.2996 76.5259 44.2399 76.4757C44.1802 76.4255 44.1047 76.3982 44.0267 76.3987H35.3834C35.3055 76.3982 35.2299 76.4255 35.1702 76.4757C35.1105 76.5259 35.0706 76.5956 35.0576 76.6725L30.5813 98.6982Z" fill="#263238"/>
<path d="M57.9925 73.8854H34.4254C34.1575 73.885 33.8921 73.9375 33.6444 74.0399C33.3968 74.1423 33.1718 74.2925 32.9823 74.482C32.7929 74.6715 32.6426 74.8964 32.5403 75.1441C32.4379 75.3917 32.3854 75.6571 32.3857 75.9251V75.9935C32.3854 76.0912 32.4043 76.1879 32.4414 76.2783C32.4786 76.3686 32.5332 76.4507 32.6021 76.5199C32.671 76.5891 32.7529 76.644 32.8431 76.6814C32.9333 76.7189 33.03 76.7382 33.1277 76.7382H59.2902C59.3879 76.7382 59.4846 76.7189 59.5748 76.6814C59.665 76.644 59.7469 76.5891 59.8159 76.5199C59.8848 76.4507 59.9394 76.3686 59.9765 76.2783C60.0136 76.1879 60.0326 76.0912 60.0322 75.9935V75.9251C60.0326 75.6571 59.98 75.3917 59.8777 75.1441C59.7753 74.8964 59.6251 74.6715 59.4356 74.482C59.2461 74.2925 59.0211 74.1423 58.7735 74.0399C58.5259 73.9375 58.2605 73.885 57.9925 73.8854Z" fill="#407BFF"/>
<path d="M102.394 43.0795C102.972 44.1445 103.506 45.2095 104.018 46.2991C104.53 47.3888 105.009 48.4894 105.455 49.6256L105.619 50.0527L105.701 50.269L105.748 50.3949L105.816 50.6112C105.943 51.0821 105.96 51.5756 105.866 52.054C105.73 52.7583 105.483 53.4366 105.135 54.0636C104.835 54.6288 104.492 55.1706 104.111 55.6844C103.741 56.1914 103.337 56.6734 102.903 57.1272L101.677 56.2484C102.169 55.2356 102.599 54.1943 102.966 53.13C103.123 52.6811 103.22 52.2134 103.254 51.7392C103.254 51.5585 103.224 51.4134 103.202 51.4188L103.166 51.3422L103.07 51.1478L102.882 50.759C102.367 49.7187 101.833 48.6756 101.296 47.6325L99.7002 44.4977L102.394 43.0795Z" fill="#FF8B7B"/>
<path d="M101.901 55.9828L100.751 56.618L102.479 58.0964C102.479 58.0964 103.196 57.3873 103.073 56.5331L101.901 55.9828Z" fill="#FF8B7B"/>
<path d="M99.6428 57.7378L101.129 58.8904L102.474 58.0937L100.746 56.618L99.6428 57.7378Z" fill="#FF8B7B"/>
<path d="M93.499 35.4382C93.4743 35.5806 93.3813 35.6846 93.2909 35.6682C93.2006 35.6518 93.1403 35.5286 93.1622 35.3944C93.1841 35.2603 93.2772 35.148 93.3703 35.1644C93.4634 35.1809 93.5209 35.2959 93.499 35.4382Z" fill="#263238"/>
<path d="M93.395 35.6847C93.1576 36.088 92.8655 36.4565 92.5271 36.7798C92.6132 36.8648 92.7169 36.9297 92.831 36.9699C92.9451 37.0102 93.0666 37.0247 93.1869 37.0125L93.395 35.6847Z" fill="#FF5652"/>
<path d="M94.1369 34.7319C94.1257 34.732 94.1147 34.7298 94.1043 34.7256C94.094 34.7214 94.0846 34.7151 94.0767 34.7073C94.0035 34.6308 93.9133 34.5728 93.8133 34.538C93.7133 34.5033 93.6065 34.4928 93.5017 34.5074C93.48 34.5115 93.4575 34.5069 93.4391 34.4946C93.4207 34.4823 93.4078 34.4633 93.4032 34.4417C93.4008 34.4311 93.4005 34.4201 93.4023 34.4094C93.4042 34.3987 93.4082 34.3884 93.414 34.3792C93.4199 34.3701 93.4275 34.3622 93.4365 34.356C93.4454 34.3498 93.4555 34.3454 93.4661 34.3431C93.5989 34.3212 93.7349 34.3322 93.8624 34.3752C93.9898 34.4181 94.1048 34.4918 94.1971 34.5895C94.205 34.5972 94.2113 34.6063 94.2155 34.6165C94.2198 34.6266 94.222 34.6374 94.222 34.6484C94.222 34.6594 94.2198 34.6702 94.2155 34.6804C94.2113 34.6905 94.205 34.6996 94.1971 34.7073C94.1892 34.7151 94.1798 34.7214 94.1695 34.7256C94.1591 34.7298 94.1481 34.732 94.1369 34.7319Z" fill="#263238"/>
<path d="M98.23 37.0016C97.9753 38.3048 97.7207 40.6894 98.6324 41.5573C98.6324 41.5573 98.2765 42.8797 95.8563 42.8797C93.1951 42.8797 94.5859 41.5573 94.5859 41.5573C96.037 41.2123 95.9986 40.1336 95.7468 39.1234L98.23 37.0016Z" fill="#FF8B7B"/>
<path d="M100.07 42.8796C100.033 42.8063 100.007 42.7279 99.9931 42.6469C99.7576 41.3793 98.7665 40.3827 97.4825 40.3335C96.1136 40.2842 94.5996 40.5141 93.6933 41.5792C93.2964 42.0446 93.7371 42.7263 93.7371 42.7263L100.07 42.8796Z" fill="#407BFF"/>
<path d="M104.286 96.0125H104.27C104.238 95.9946 104.213 95.9672 104.198 95.9342C104.184 95.9012 104.18 95.8644 104.187 95.829C104.189 95.8004 104.197 95.7726 104.211 95.7475C104.224 95.7224 104.244 95.7006 104.267 95.6839C104.478 95.5224 105.064 95.621 105.088 95.6264C105.096 95.6281 105.104 95.6318 105.11 95.637C105.116 95.6423 105.121 95.649 105.124 95.6566C105.125 95.6647 105.125 95.6731 105.122 95.6808C105.119 95.6886 105.114 95.6953 105.107 95.7004C104.965 95.8044 104.494 96.0973 104.286 96.0125ZM104.973 95.6867C104.754 95.6407 104.526 95.6607 104.319 95.7442C104.305 95.7535 104.293 95.766 104.284 95.7808C104.276 95.7955 104.271 95.812 104.27 95.829C104.27 95.9057 104.297 95.9249 104.308 95.9303C104.42 95.9906 104.751 95.8372 104.973 95.6867Z" fill="#407BFF"/>
<path d="M104.784 95.6236C104.582 95.5442 104.366 95.4128 104.335 95.2869C104.328 95.256 104.332 95.2236 104.346 95.1951C104.36 95.1667 104.383 95.1439 104.412 95.1308C104.439 95.1136 104.469 95.1023 104.501 95.0976C104.533 95.0929 104.565 95.0949 104.596 95.1035C104.853 95.1692 105.108 95.6209 105.118 95.651C105.122 95.6572 105.124 95.6643 105.124 95.6716C105.124 95.6788 105.122 95.6859 105.118 95.6921C105.114 95.6986 105.109 95.7041 105.102 95.7079C105.095 95.7117 105.088 95.7138 105.08 95.714C104.978 95.6974 104.878 95.667 104.784 95.6236ZM104.604 95.1938H104.576C104.556 95.188 104.535 95.1865 104.514 95.1893C104.494 95.1922 104.474 95.1993 104.456 95.2102C104.409 95.2376 104.415 95.2622 104.418 95.2732C104.445 95.3909 104.773 95.5634 104.998 95.6127C104.905 95.4414 104.769 95.2971 104.604 95.1938Z" fill="#407BFF"/>
<path d="M90.8188 97.1732C90.5916 97.1732 90.3698 97.1431 90.2959 97.0391C90.2773 97.0121 90.2673 96.9801 90.2673 96.9474C90.2673 96.9146 90.2773 96.8826 90.2959 96.8557C90.3104 96.831 90.3298 96.8095 90.3528 96.7926C90.3759 96.7756 90.4022 96.7636 90.4301 96.7571C90.7257 96.6777 91.35 97.0309 91.3746 97.0473C91.3823 97.0508 91.3885 97.0567 91.3925 97.0641C91.3965 97.0716 91.3979 97.0801 91.3965 97.0884C91.3954 97.0974 91.3912 97.1058 91.3848 97.1123C91.3784 97.1187 91.37 97.1228 91.3609 97.124C91.182 97.1559 91.0006 97.1724 90.8188 97.1732ZM90.545 96.8283C90.5178 96.8242 90.4901 96.8242 90.4629 96.8283C90.4291 96.8361 90.3997 96.8567 90.3808 96.8858C90.3507 96.9378 90.3616 96.9652 90.3808 96.9789C90.4629 97.0938 90.9146 97.0966 91.2459 97.05C91.0263 96.9306 90.7854 96.8552 90.5368 96.8283H90.545Z" fill="#407BFF"/>
<path d="M91.3553 97.124H91.3388C91.1253 97.0282 90.6982 96.6422 90.731 96.4423C90.731 96.393 90.7721 96.3355 90.8871 96.3246C90.9291 96.3195 90.9718 96.3233 91.0123 96.3355C91.0528 96.3478 91.0903 96.3683 91.1225 96.3957C91.2836 96.5904 91.3794 96.8308 91.3963 97.0829C91.3965 97.09 91.3948 97.097 91.3914 97.1033C91.3881 97.1095 91.3832 97.1148 91.3772 97.1185C91.3707 97.1229 91.363 97.1248 91.3553 97.124ZM90.9227 96.404H90.8953C90.8187 96.404 90.8132 96.4423 90.8132 96.4532C90.7913 96.5737 91.087 96.8749 91.3005 97.0008C91.2819 96.798 91.1994 96.6063 91.0651 96.4532C91.0252 96.4201 90.9746 96.4025 90.9227 96.404Z" fill="#407BFF"/>
<path d="M93.3129 97.0829H91.5334L91.3582 92.9597H93.1377L93.3129 97.0829Z" fill="#FF8B7B"/>
<path d="M107.024 95.2266L105.357 95.6071L103.41 91.6565L105.077 91.2732L107.024 95.2266Z" fill="#FF8B7B"/>
<path d="M105.116 95.4183L106.934 94.5969C106.966 94.5822 107.002 94.5787 107.036 94.5872C107.071 94.5956 107.101 94.6155 107.123 94.6435L108.103 95.9357C108.124 95.9681 108.139 96.0047 108.145 96.0431C108.151 96.0815 108.149 96.1208 108.139 96.1584C108.129 96.1959 108.111 96.2309 108.086 96.261C108.062 96.291 108.031 96.3155 107.996 96.3327C107.358 96.6065 107.032 96.716 106.233 97.0829C105.743 97.3074 104.004 98.5339 103.273 98.69C102.542 98.846 102.293 98.1424 102.578 98.0165C103.593 97.5079 104.41 96.6756 104.899 95.651C104.939 95.5488 105.017 95.4656 105.116 95.4183Z" fill="#263238"/>
<path d="M91.547 96.8776H93.4908C93.5258 96.8779 93.5597 96.8899 93.587 96.9118C93.6143 96.9336 93.6335 96.964 93.6414 96.998L93.9919 98.5805C94.0011 98.6187 94.0014 98.6585 93.9928 98.6968C93.9843 98.7352 93.967 98.7711 93.9425 98.8017C93.9179 98.8324 93.8866 98.857 93.851 98.8737C93.8155 98.8904 93.7765 98.8987 93.7373 98.8981C93.0364 98.8844 92.0234 98.8433 91.1418 98.8433C90.1096 98.8433 89.2253 98.9008 88.0125 98.9008C87.2815 98.9008 87.0789 98.1616 87.3855 98.0959C88.7763 97.7893 89.9125 97.7564 91.1172 97.0145C91.2449 96.9296 91.3938 96.8822 91.547 96.8776Z" fill="#263238"/>
<path d="M99.1938 44.9823C99.38 45.4614 99.5826 45.9269 99.7906 46.3512C100.144 47.1069 100.497 47.7667 100.754 48.2239C100.984 48.6346 101.135 48.8782 101.135 48.8782L105.023 46.9617C105.023 46.9617 103.457 42.458 101.819 41.957C100.182 41.456 98.3533 42.8359 99.1938 44.9823Z" fill="#263238"/>
<path opacity="0.2" d="M100.916 45.4286C100.579 45.6777 100.335 46.3485 100.163 47.1343C100.385 47.5668 100.59 47.9556 100.754 48.2294C100.984 48.64 101.132 48.8837 101.132 48.8837L101.578 48.662C101.569 47.5515 101.344 46.4534 100.916 45.4286Z" fill="black"/>
<path d="M90.9722 47.8543C90.9722 48.4593 90.9859 49.1274 91.0215 49.8611C91.1091 51.857 91.3254 54.3456 91.7442 57.4366H101.264C101.329 55.9774 100.409 48.8454 101.811 41.9598C100.759 41.7579 99.6941 41.6235 98.6244 41.5573C97.2766 41.4806 95.9256 41.4806 94.5779 41.5573C93.6539 41.6522 92.7386 41.8179 91.8401 42.0529C91.8401 42.0529 90.9694 43.0439 90.9722 47.8543Z" fill="#263238"/>
<path opacity="0.2" d="M91.2513 46.5702C91.1637 46.7619 91.0706 46.9563 90.9775 47.1643C90.9775 47.3861 90.9775 47.6161 90.9775 47.8543C90.9775 47.9501 90.9775 48.0486 90.9775 48.1472C92.1603 47.4272 92.9351 45.9159 92.9351 45.9159L91.2513 46.5702Z" fill="black"/>
<path d="M93.8358 45.2753L93.562 45.445L93.3211 45.5847C93.1595 45.6805 93.009 45.7489 92.8556 45.8338C92.549 45.9844 92.2478 46.1267 91.9439 46.2636C91.3389 46.5374 90.7201 46.7674 90.0987 46.9864C88.8158 47.4415 87.483 47.7412 86.1288 47.8789C85.9454 47.8789 85.7757 47.9145 85.5813 47.9118H85.0912H84.9899C84.5433 47.8783 84.1051 47.7729 83.6922 47.5997C83.0385 47.3254 82.417 46.9802 81.8387 46.5703C80.7649 45.8224 79.7737 44.9624 78.8818 44.0049L79.8346 42.8331C80.8914 43.419 81.9701 44.0323 83.0242 44.5196C83.5132 44.7561 84.0215 44.9503 84.5436 45.1001C84.7143 45.1498 84.8916 45.1729 85.0693 45.1685L85.4143 45.1356C85.5347 45.1356 85.6716 45.0973 85.8003 45.0809C86.9173 44.8709 88.0112 44.5527 89.0665 44.1309C89.6141 43.9255 90.1616 43.6956 90.6928 43.4628C90.9666 43.3424 91.2212 43.2219 91.473 43.096L91.8344 42.9071L92.0014 42.8195L92.1329 42.7428L93.8358 45.2753Z" fill="#FF8B7B"/>
<path d="M80.1658 43.2027L79.0542 41.7681L77.9263 43.6654C77.9263 43.6654 78.9639 44.4374 79.7935 44.2978L80.1658 43.2027Z" fill="#FF8B7B"/>
<path d="M77.3924 41.1849L76.801 42.751L77.9263 43.6654L79.0542 41.7681L77.3924 41.1849Z" fill="#FF8B7B"/>
<path d="M95.4428 44.8782C94.5202 46.3074 89.5017 47.8706 89.5017 47.8706L87.5688 43.8953C88.9111 43.1103 90.3409 42.4854 91.8289 42.0336C95.0321 41.1575 96.5516 43.1616 95.4428 44.8782Z" fill="#263238"/>
<path opacity="0.2" d="M91.3582 92.9625L91.4485 95.0871H93.2281L93.1377 92.9625H91.3582Z" fill="black"/>
<path opacity="0.2" d="M105.077 91.276L103.41 91.6593L104.415 93.6962L106.082 93.3129L105.077 91.276Z" fill="black"/>
<path d="M98.2875 35.8791C97.9069 37.6039 97.7728 38.6333 96.7516 39.389C95.2184 40.5279 93.1924 39.389 93.05 37.5902C92.9214 35.964 93.5648 33.4178 95.3772 32.9907C95.7767 32.8946 96.1941 32.9022 96.5899 33.0129C96.9856 33.1236 97.3464 33.3336 97.6381 33.6231C97.9297 33.9125 98.1425 34.2718 98.2561 34.6666C98.3698 35.0615 98.3806 35.4789 98.2875 35.8791Z" fill="#FF8B7B"/>
<path d="M99.8727 31.6519C101.387 31.693 101.937 34.209 101.485 34.9592C101.485 34.9592 101.001 35.233 100.412 36.1556C99.5195 37.5629 98.3806 39.0851 97.0445 38.9947C95.3854 38.8798 95.1281 36.9633 95.1856 35.181C94.3095 34.3596 93.8303 34.2939 93.4005 33.103C92.0727 29.4316 94.6243 27.5917 99.8727 31.6519Z" fill="#263238"/>
<path d="M95.9 35.712C95.8531 36.1575 95.6607 36.5751 95.3525 36.9002C94.9391 37.3246 94.5311 37.0398 94.4819 36.5032C94.4353 36.0214 94.5941 35.2219 95.0869 34.9974C95.5797 34.7729 95.9493 35.1727 95.9 35.712Z" fill="#FF8B7B"/>
<path d="M95.1197 57.4365C95.1197 57.4365 94.9144 70.1044 96.5051 75.0708C99.0266 82.9365 103.35 93.5182 103.35 93.5182L106.602 92.6968C106.602 92.6968 103.018 81.9701 101.855 75.3446C100.809 69.3926 101.252 62.3071 101.252 57.4447L95.1197 57.4365Z" fill="#407BFF"/>
<path opacity="0.2" d="M96.8966 59.6132C97.2333 61.8965 96.0424 68.251 95.6317 70.3318C95.1991 66.4413 95.1197 61.8254 95.1143 59.3066C95.9849 58.7152 96.7405 58.5619 96.8966 59.6132Z" fill="black"/>
<path d="M102.49 92.56C102.476 92.56 103.287 93.5894 103.287 93.5894L106.846 92.6832L106.452 91.4758L102.49 92.56Z" fill="#407BFF"/>
<path opacity="0.2" d="M102.49 92.56C102.476 92.56 103.287 93.5894 103.287 93.5894L106.846 92.6832L106.452 91.4758L102.49 92.56Z" fill="white"/>
<path d="M91.7413 57.4365C91.7413 57.4365 89.061 68.8012 88.8721 74.2303C88.6613 80.3164 90.7886 94.6763 90.7886 94.6763H93.8002C93.8002 94.6763 94.1807 80.2179 94.3067 74.6601C94.4545 68.615 98.0137 57.4365 98.0137 57.4365H91.7413Z" fill="#407BFF"/>
<path d="M90.2056 93.4745C90.1919 93.4745 90.3753 94.7257 90.3753 94.7257H94.044L94.1425 93.6086L90.2056 93.4745Z" fill="#407BFF"/>
<path opacity="0.2" d="M90.2056 93.4745C90.1919 93.4745 90.3753 94.7257 90.3753 94.7257H94.044L94.1425 93.6086L90.2056 93.4745Z" fill="white"/>
</svg>
