<svg width="314" height="233" viewBox="0 0 314 233" fill="none" xmlns="http://www.w3.org/2000/svg">
<path d="M282.228 216.342H261.451V216.499H282.228V216.342Z" fill="#EBEBEB"/>
<path d="M207.778 218.048H202.327V218.205H207.778V218.048Z" fill="#EBEBEB"/>
<path d="M260.824 210.521H248.786V210.677H260.824V210.521Z" fill="#EBEBEB"/>
<path d="M60.0026 211.574H32.9089V211.731H60.0026V211.574Z" fill="#EBEBEB"/>
<path d="M69.5627 211.574H65.5918V211.731H69.5627V211.574Z" fill="#EBEBEB"/>
<path d="M141.239 214.222H82.4727V214.379H141.239V214.222Z" fill="#EBEBEB"/>
<path d="M148.673 178.27H27.5517C26.6017 178.27 25.6906 177.893 25.0189 177.221C24.3471 176.55 23.9697 175.638 23.9697 174.688V4.41698C23.978 3.47244 24.359 2.56939 25.0299 1.90441C25.7007 1.23943 26.6071 0.866358 27.5517 0.866394H148.673C149.623 0.866394 150.534 1.24378 151.206 1.91552C151.878 2.58727 152.255 3.49836 152.255 4.44835V174.688C152.255 175.638 151.878 176.55 151.206 177.221C150.534 177.893 149.623 178.27 148.673 178.27ZM27.5517 0.991857C26.6438 0.993515 25.7736 1.35491 25.1316 1.99688C24.4896 2.63886 24.1282 3.50909 24.1266 4.41698V174.688C24.1282 175.596 24.4896 176.467 25.1316 177.109C25.7736 177.751 26.6438 178.112 27.5517 178.114H148.673C149.581 178.112 150.451 177.751 151.093 177.109C151.735 176.467 152.097 175.596 152.098 174.688V4.41698C152.097 3.50909 151.735 2.63886 151.093 1.99688C150.451 1.35491 149.581 0.993515 148.673 0.991857H27.5517Z" fill="#EBEBEB"/>
<path d="M284.367 178.27H163.233C162.284 178.269 161.373 177.891 160.702 177.219C160.031 176.548 159.653 175.638 159.651 174.688V4.41698C159.661 3.47295 160.043 2.57085 160.713 1.90622C161.384 1.2416 162.289 0.867993 163.233 0.866394H284.367C285.31 0.869659 286.213 1.24419 286.881 1.90882C287.549 2.57344 287.928 3.4746 287.937 4.41698V174.688C287.937 175.636 287.561 176.545 286.892 177.217C286.223 177.888 285.315 178.267 284.367 178.27ZM163.233 0.991857C162.325 0.993515 161.455 1.35491 160.813 1.99688C160.171 2.63886 159.81 3.50909 159.808 4.41698V174.688C159.81 175.596 160.171 176.467 160.813 177.109C161.455 177.751 162.325 178.112 163.233 178.114H284.367C285.275 178.112 286.145 177.751 286.787 177.109C287.429 176.467 287.791 175.596 287.792 174.688V4.41698C287.791 3.50909 287.429 2.63886 286.787 1.99688C286.145 1.35491 285.275 0.993515 284.367 0.991857H163.233Z" fill="#EBEBEB"/>
<path d="M313.656 206.249H0V206.405H313.656V206.249Z" fill="#EBEBEB"/>
<path d="M237.865 48.0842C247.316 48.0842 254.978 40.4224 254.978 30.9711C254.978 21.5198 247.316 13.858 237.865 13.858C228.413 13.858 220.751 21.5198 220.751 30.9711C220.751 40.4224 228.413 48.0842 237.865 48.0842Z" fill="#F0F0F0"/>
<path d="M237.908 48.467C235.582 48.511 233.271 48.0909 231.11 47.2313C228.948 46.3717 226.979 45.0898 225.319 43.4605C223.658 41.8312 222.339 39.8873 221.439 37.7423C220.539 35.5973 220.075 33.2944 220.075 30.9681C220.075 28.6418 220.539 26.3389 221.439 24.1939C222.339 22.0489 223.658 20.105 225.319 18.4757C226.979 16.8464 228.948 15.5645 231.11 14.7049C233.271 13.8452 235.582 13.4252 237.908 13.4692V14.2345C233.526 14.3194 229.353 16.1197 226.284 19.2486C223.215 22.3775 221.496 26.5854 221.496 30.9681C221.496 35.3508 223.215 39.5587 226.284 42.6876C229.353 45.8165 233.526 47.6168 237.908 47.7017V48.467Z" fill="white"/>
<path d="M237.908 48.467V47.7017C242.29 47.6168 246.464 45.8165 249.533 42.6876C252.602 39.5587 254.321 35.3508 254.321 30.9681C254.321 26.5854 252.602 22.3775 249.533 19.2486C246.464 16.1197 242.29 14.3194 237.908 14.2345V13.4692C240.234 13.4252 242.546 13.8452 244.707 14.7049C246.869 15.5645 248.837 16.8464 250.498 18.4757C252.158 20.105 253.477 22.0489 254.378 24.1939C255.278 26.3389 255.742 28.6418 255.742 30.9681C255.742 33.2944 255.278 35.5973 254.378 37.7423C253.477 39.8873 252.158 41.8312 250.498 43.4605C248.837 45.0898 246.869 46.3717 244.707 47.2313C242.546 48.0909 240.234 48.511 237.908 48.467Z" fill="white"/>
<path d="M246.854 30.9774H246.082C246.082 25.3316 243.203 17.716 237.701 14.1843L238.115 13.5569C243.855 17.2142 246.854 25.0932 246.854 30.9774Z" fill="white"/>
<path d="M238.115 47.9149L237.701 47.2875C243.203 43.7558 246.082 36.1653 246.082 30.4944H246.854C246.854 36.3284 243.855 44.2137 238.115 47.9149Z" fill="white"/>
<path d="M229.741 30.9774H228.969C228.969 25.0932 231.968 17.2142 237.701 13.5319L238.115 14.1592C232.614 17.7098 229.741 25.294 229.741 30.9774Z" fill="white"/>
<path d="M237.701 47.9149C231.968 44.2388 228.969 36.3598 228.969 30.4756H229.741C229.741 36.1214 232.614 43.737 238.115 47.2687L237.701 47.9149Z" fill="white"/>
<path d="M238.297 13.8518H237.526V48.0843H238.297V13.8518Z" fill="white"/>
<path d="M252.399 21.4675H223.424V22.2391H252.399V21.4675Z" fill="white"/>
<path d="M255.022 30.8771H220.802V31.6487H255.022V30.8771Z" fill="white"/>
<path d="M252.016 40.2742H223.806V41.0458H252.016V40.2742Z" fill="white"/>
<path d="M41.9674 192.134H33.323V194.405H41.9674V192.134Z" fill="#E6E6E6"/>
<path d="M109.039 192.134H100.395V194.405H109.039V192.134Z" fill="#E6E6E6"/>
<path d="M49.3258 193.27H47.0549V206.631H49.3258V193.27Z" fill="#E0E0E0"/>
<path d="M102.616 130.551H40.6812V135.394H102.616V130.551Z" fill="#E6E6E6"/>
<path d="M102.616 190.848H40.6812V195.691H102.616V190.848Z" fill="#E6E6E6"/>
<path d="M43.0461 200.433L42.8517 200.634C42.6855 200.807 42.4862 200.944 42.2658 201.038C42.0454 201.131 41.8083 201.18 41.5688 201.18C41.3293 201.18 41.0922 201.131 40.8718 201.038C40.6514 200.944 40.4521 200.807 40.2859 200.634L40.0977 200.433C39.5204 199.836 39.1986 199.037 39.2007 198.206V131.843C39.2012 131.013 39.5227 130.215 40.0977 129.616L40.2859 129.415C40.4521 129.243 40.6514 129.106 40.8718 129.012C41.0922 128.918 41.3293 128.87 41.5688 128.87C41.8083 128.87 42.0454 128.918 42.2658 129.012C42.4862 129.106 42.6855 129.243 42.8517 129.415L43.0461 129.616C43.619 130.216 43.94 131.013 43.9432 131.843V198.206C43.942 199.037 43.6207 199.834 43.0461 200.433Z" fill="#F0F0F0"/>
<path d="M49.6645 200.433L49.47 200.634C49.3038 200.807 49.1045 200.944 48.8841 201.038C48.6637 201.131 48.4267 201.18 48.1871 201.18C47.9476 201.18 47.7106 201.131 47.4902 201.038C47.2697 200.944 47.0705 200.807 46.9043 200.634L46.7161 200.433C46.1296 199.84 45.7986 199.041 45.7939 198.206V131.843C45.7945 131.013 46.1159 130.215 46.691 129.616L46.8792 129.415C47.0454 129.243 47.2447 129.106 47.4651 129.012C47.6855 128.918 47.9225 128.87 48.1621 128.87C48.4016 128.87 48.6386 128.918 48.859 129.012C49.0794 129.106 49.2787 129.243 49.4449 129.415L49.6394 129.616C50.2145 130.215 50.5359 131.013 50.5364 131.843V198.206C50.5452 199.034 50.2326 199.832 49.6645 200.433Z" fill="#F0F0F0"/>
<path d="M56.2827 200.433L56.0882 200.634C55.922 200.807 55.7228 200.944 55.5024 201.038C55.2819 201.131 55.0449 201.18 54.8054 201.18C54.5659 201.18 54.3288 201.131 54.1084 201.038C53.888 200.944 53.6887 200.807 53.5225 200.634L53.3343 200.433C52.757 199.836 52.4352 199.037 52.4373 198.206V131.843C52.4345 131.015 52.7513 130.217 53.3218 129.616L53.51 129.415C53.6762 129.243 53.8754 129.106 54.0959 129.012C54.3163 128.918 54.5533 128.87 54.7928 128.87C55.0323 128.87 55.2694 128.918 55.4898 129.012C55.7102 129.106 55.9095 129.243 56.0757 129.415L56.2702 129.616C56.8452 130.215 57.1667 131.013 57.1672 131.843V198.206C57.1727 199.035 56.8555 199.834 56.2827 200.433Z" fill="#F0F0F0"/>
<path d="M62.9004 200.433L62.7059 200.634C62.5397 200.807 62.3404 200.944 62.12 201.038C61.8996 201.131 61.6626 201.18 61.423 201.18C61.1835 201.18 60.9465 201.131 60.7261 201.038C60.5057 200.944 60.3064 200.807 60.1402 200.634L59.952 200.433C59.3747 199.836 59.0529 199.037 59.0549 198.206V131.843C59.0555 131.013 59.3769 130.215 59.952 129.616L60.1402 129.415C60.3064 129.243 60.5057 129.106 60.7261 129.012C60.9465 128.918 61.1835 128.87 61.423 128.87C61.6626 128.87 61.8996 128.918 62.12 129.012C62.3404 129.106 62.5397 129.243 62.7059 129.415L62.9004 129.616C63.4755 130.215 63.7969 131.013 63.7974 131.843V198.206C63.7995 199.037 63.4777 199.836 62.9004 200.433Z" fill="#F0F0F0"/>
<path d="M69.5188 200.433L69.3243 200.634C69.1581 200.807 68.9588 200.944 68.7384 201.038C68.518 201.131 68.281 201.18 68.0415 201.18C67.8019 201.18 67.5649 201.131 67.3445 201.038C67.1241 200.944 66.9248 200.807 66.7586 200.634L66.5704 200.433C65.9931 199.836 65.6713 199.037 65.6733 198.206V131.843C65.6739 131.013 65.9953 130.215 66.5704 129.616L66.7586 129.415C66.9248 129.243 67.1241 129.106 67.3445 129.012C67.5649 128.918 67.8019 128.87 68.0415 128.87C68.281 128.87 68.518 128.918 68.7384 129.012C68.9588 129.106 69.1581 129.243 69.3243 129.415L69.5188 129.616C70.0939 130.215 70.4153 131.013 70.4158 131.843V198.206C70.4179 199.037 70.0961 199.836 69.5188 200.433Z" fill="#F0F0F0"/>
<path d="M76.1369 200.433L75.9487 200.634C75.782 200.807 75.5822 200.944 75.3613 201.038C75.1403 201.132 74.9028 201.18 74.6628 201.18C74.4227 201.18 74.1852 201.132 73.9642 201.038C73.7433 200.944 73.5435 200.807 73.3768 200.634L73.1886 200.433C72.6112 199.836 72.2894 199.037 72.2915 198.206V131.843C72.2921 131.013 72.6135 130.215 73.1886 129.616L73.3768 129.415C73.5435 129.243 73.7433 129.105 73.9642 129.012C74.1852 128.918 74.4227 128.87 74.6628 128.87C74.9028 128.87 75.1403 128.918 75.3613 129.012C75.5822 129.105 75.782 129.243 75.9487 129.415L76.1369 129.616C76.712 130.215 77.0334 131.013 77.034 131.843V198.206C77.0361 199.037 76.7143 199.836 76.1369 200.433Z" fill="#F0F0F0"/>
<path d="M82.7551 200.433L82.5669 200.634C82.4002 200.807 82.2004 200.944 81.9794 201.038C81.7585 201.132 81.5209 201.18 81.2809 201.18C81.0409 201.18 80.8033 201.132 80.5824 201.038C80.3615 200.944 80.1617 200.807 79.9949 200.634L79.8067 200.433C79.2294 199.836 78.9076 199.037 78.9097 198.206V131.843C78.9102 131.013 79.2316 130.215 79.8067 129.616L79.9949 129.415C80.1617 129.243 80.3615 129.105 80.5824 129.012C80.8033 128.918 81.0409 128.87 81.2809 128.87C81.5209 128.87 81.7585 128.918 81.9794 129.012C82.2004 129.105 82.4002 129.243 82.5669 129.415L82.7551 129.616C83.3302 130.215 83.6516 131.013 83.6522 131.843V198.206C83.6542 199.037 83.3324 199.836 82.7551 200.433Z" fill="#F0F0F0"/>
<path d="M89.3733 200.433L89.1851 200.634C89.0189 200.807 88.8196 200.944 88.5992 201.038C88.3788 201.131 88.1417 201.18 87.9022 201.18C87.6627 201.18 87.4257 201.131 87.2052 201.038C86.9848 200.944 86.7856 200.807 86.6194 200.634L86.4249 200.433C85.8476 199.836 85.5258 199.037 85.5278 198.206V131.843C85.5284 131.013 85.8498 130.215 86.4249 129.616L86.6194 129.415C86.7856 129.243 86.9848 129.106 87.2052 129.012C87.4257 128.918 87.6627 128.87 87.9022 128.87C88.1417 128.87 88.3788 128.918 88.5992 129.012C88.8196 129.106 89.0189 129.243 89.1851 129.415L89.3733 129.616C89.9484 130.215 90.2698 131.013 90.2703 131.843V198.206C90.2724 199.037 89.9506 199.836 89.3733 200.433Z" fill="#F0F0F0"/>
<path d="M94.4169 193.27H92.146V206.631H94.4169V193.27Z" fill="#E0E0E0"/>
<path d="M95.979 200.433L95.7908 200.634C95.6246 200.807 95.4253 200.944 95.2049 201.038C94.9845 201.131 94.7474 201.18 94.5079 201.18C94.2684 201.18 94.0314 201.131 93.811 201.038C93.5905 200.944 93.3913 200.807 93.2251 200.634L93.0306 200.433C92.4533 199.836 92.1315 199.037 92.1336 198.206V131.843C92.1341 131.013 92.4555 130.215 93.0306 129.616L93.2251 129.415C93.3913 129.243 93.5905 129.106 93.811 129.012C94.0314 128.918 94.2684 128.87 94.5079 128.87C94.7474 128.87 94.9845 128.918 95.2049 129.012C95.4253 129.106 95.6246 129.243 95.7908 129.415L95.979 129.616C96.5541 130.215 96.8755 131.013 96.876 131.843V198.206C96.8781 199.037 96.5563 199.836 95.979 200.433Z" fill="#F0F0F0"/>
<path d="M102.61 200.433L102.421 200.634C102.255 200.807 102.056 200.944 101.836 201.038C101.615 201.131 101.378 201.18 101.139 201.18C100.899 201.18 100.662 201.131 100.442 201.038C100.221 200.944 100.022 200.807 99.8557 200.634L99.6612 200.433C99.0839 199.836 98.7621 199.037 98.7642 198.206V131.843C98.7647 131.013 99.0861 130.215 99.6612 129.616L99.8557 129.415C100.022 129.243 100.221 129.106 100.442 129.012C100.662 128.918 100.899 128.87 101.139 128.87C101.378 128.87 101.615 128.918 101.836 129.012C102.056 129.106 102.255 129.243 102.421 129.415L102.61 129.616C103.185 130.215 103.506 131.013 103.507 131.843V198.206C103.509 199.037 103.187 199.836 102.61 200.433Z" fill="#F0F0F0"/>
<path d="M109.529 185.773H107.258V206.518H109.529V185.773Z" fill="#F5F5F5"/>
<path d="M243.78 172.305C243.78 172.305 240.888 139.503 225.619 108.005C225.619 108.005 248.115 129.001 248.905 172.305H243.78Z" fill="#F5F5F5"/>
<path d="M247.33 177.386C247.33 177.386 235.085 120.301 237.293 90.0389C237.293 90.0389 253.673 123.707 252.882 174.588L247.33 177.386Z" fill="#F5F5F5"/>
<path d="M256.37 173.779C256.37 173.779 257.537 136.498 263.521 118.086C263.521 118.086 268.54 141.466 260.222 172.894L256.37 173.779Z" fill="#E6E6E6"/>
<path d="M252.851 174.588C252.851 174.588 248.905 124.874 259.952 102.598C259.952 102.598 261.138 147.764 258.371 174.588H252.851Z" fill="#E6E6E6"/>
<path d="M265.46 206.38H240.493L236.924 169.538H269.036L265.46 206.38Z" fill="#F0F0F0"/>
<path d="M262.179 174.871C262.179 174.871 265.096 142.068 280.333 110.565C280.333 110.565 257.838 131.567 257.048 174.871H262.179Z" fill="#F5F5F5"/>
<path d="M153.804 232.163C220.979 232.163 275.434 228.984 275.434 225.062C275.434 221.14 220.979 217.961 153.804 217.961C86.6302 217.961 32.1748 221.14 32.1748 225.062C32.1748 228.984 86.6302 232.163 153.804 232.163Z" fill="#F5F5F5"/>
<path d="M102.81 217.741V219.573C102.812 220.027 102.994 220.463 103.316 220.784C103.638 221.105 104.074 221.285 104.529 221.285H170.152C170.36 221.286 170.566 221.246 170.758 221.167C170.95 221.087 171.125 220.971 171.272 220.824C171.419 220.677 171.535 220.503 171.615 220.31C171.694 220.118 171.734 219.912 171.733 219.704V217.948C171.734 217.74 171.694 217.534 171.615 217.342C171.535 217.15 171.419 216.975 171.272 216.828C171.125 216.681 170.95 216.565 170.758 216.486C170.566 216.407 170.36 216.366 170.152 216.367H153.842C153.406 216.367 152.976 216.272 152.58 216.088C152.185 215.904 151.835 215.636 151.554 215.303C151.273 214.969 151.069 214.578 150.955 214.158C150.841 213.737 150.82 213.296 150.894 212.867L156.621 179.795H119.34L103.381 215.112C103.004 215.937 102.809 216.834 102.81 217.741Z" fill="#263238"/>
<path opacity="0.2" d="M171.733 217.917V219.686C171.734 219.893 171.694 220.098 171.615 220.289C171.536 220.481 171.42 220.654 171.274 220.801C171.127 220.947 170.954 221.063 170.762 221.142C170.571 221.221 170.366 221.261 170.159 221.26H104.529C104.074 221.26 103.638 221.08 103.316 220.759C102.994 220.438 102.812 220.002 102.81 219.548V217.716C102.809 217.23 102.863 216.746 102.973 216.273C103.069 215.864 103.204 215.465 103.375 215.081L119.34 179.77H156.621L150.894 212.898C150.854 213.09 150.84 213.286 150.85 213.481C150.865 214.153 151.107 214.8 151.537 215.317C151.966 215.834 152.557 216.191 153.215 216.329C153.42 216.379 153.631 216.402 153.842 216.398H170.152C170.561 216.397 170.955 216.554 171.25 216.837C171.545 217.121 171.719 217.508 171.733 217.917Z" fill="white"/>
<path d="M101.267 215.112L117.232 179.795H119.34L103.381 215.112C103.004 215.937 102.809 216.834 102.81 217.741V219.573C102.812 220.027 102.994 220.463 103.316 220.784C103.638 221.105 104.074 221.285 104.529 221.285H102.421C102.196 221.286 101.972 221.242 101.764 221.157C101.555 221.071 101.366 220.945 101.206 220.786C101.047 220.627 100.92 220.438 100.833 220.23C100.747 220.021 100.702 219.798 100.702 219.573V217.741C100.703 216.835 100.895 215.939 101.267 215.112Z" fill="#263238"/>
<path opacity="0.3" d="M119.34 179.795H156.615L155.153 188.232H115.526L119.34 179.795Z" fill="black"/>
<path d="M221.272 183.502H62.2356C60.6529 183.474 59.1355 182.866 57.9704 181.795C56.8052 180.723 56.073 179.262 55.9123 177.687L45.8752 62.7633C45.7941 62.0229 45.8715 61.2737 46.1025 60.5655C46.3334 59.8574 46.7126 59.2066 47.2147 58.6564C47.7168 58.1062 48.3303 57.6693 49.0144 57.3748C49.6986 57.0802 50.4376 56.9348 51.1823 56.9481H210.2C211.783 56.9754 213.301 57.5824 214.466 58.6542C215.632 59.726 216.364 61.188 216.523 62.7633L226.56 177.687C226.641 178.426 226.564 179.173 226.334 179.88C226.104 180.587 225.727 181.237 225.227 181.787C224.727 182.337 224.116 182.774 223.434 183.07C222.752 183.365 222.015 183.513 221.272 183.502Z" fill="#263238"/>
<path d="M225.494 165.26L226.579 177.687C226.66 178.427 226.583 179.177 226.352 179.885C226.121 180.593 225.742 181.244 225.24 181.794C224.738 182.344 224.124 182.781 223.44 183.076C222.756 183.37 222.017 183.516 221.272 183.502H62.2357C60.653 183.474 59.1357 182.866 57.9705 181.795C56.8054 180.723 56.0732 179.262 55.9124 177.687L54.8271 165.26H225.494Z" fill="#407BFF"/>
<path opacity="0.6" d="M225.494 165.26L226.579 177.687C226.66 178.427 226.583 179.177 226.352 179.885C226.121 180.593 225.742 181.244 225.24 181.794C224.738 182.344 224.124 182.781 223.44 183.076C222.756 183.37 222.017 183.516 221.272 183.502H62.2357C60.653 183.474 59.1357 182.866 57.9705 181.795C56.8054 180.723 56.0732 179.262 55.9124 177.687L54.8271 165.26H225.494Z" fill="white"/>
<path d="M60.4355 161.747H219.265C219.667 161.754 220.067 161.676 220.437 161.518C220.807 161.359 221.139 161.124 221.411 160.827C221.684 160.531 221.89 160.18 222.016 159.798C222.142 159.415 222.186 159.011 222.144 158.61L213.832 63.5976C213.742 62.747 213.344 61.9587 212.713 61.3811C212.083 60.8034 211.262 60.4762 210.407 60.4611H51.5779C51.1754 60.4536 50.7759 60.5316 50.4058 60.6902C50.0358 60.8487 49.7037 61.084 49.4314 61.3806C49.1592 61.6771 48.9531 62.0281 48.8267 62.4103C48.7004 62.7925 48.6567 63.1972 48.6985 63.5976L57.0104 158.598C57.0977 159.451 57.4943 160.242 58.1254 160.822C58.7566 161.403 59.5783 161.731 60.4355 161.747Z" fill="#407BFF"/>
<path opacity="0.6" d="M60.4355 161.747H219.265C219.667 161.754 220.067 161.676 220.437 161.518C220.807 161.359 221.139 161.124 221.411 160.827C221.684 160.531 221.89 160.18 222.016 159.798C222.142 159.415 222.186 159.011 222.144 158.61L213.832 63.5976C213.742 62.747 213.344 61.9587 212.713 61.3811C212.083 60.8034 211.262 60.4762 210.407 60.4611H51.5779C51.1754 60.4536 50.7759 60.5316 50.4058 60.6902C50.0358 60.8487 49.7037 61.084 49.4314 61.3806C49.1592 61.6771 48.9531 62.0281 48.8267 62.4103C48.7004 62.7925 48.6567 63.1972 48.6985 63.5976L57.0104 158.598C57.0977 159.451 57.4943 160.242 58.1254 160.822C58.7566 161.403 59.5783 161.731 60.4355 161.747Z" fill="white"/>
<path d="M47.6759 56.9481H51.1951C50.4504 56.9348 49.7113 57.0802 49.0272 57.3748C48.3431 57.6693 47.7295 58.1062 47.2274 58.6564C46.7253 59.2066 46.3462 59.8574 46.1152 60.5656C45.8843 61.2737 45.8068 62.0229 45.888 62.7633L55.925 177.687C56.0858 179.262 56.818 180.723 57.9832 181.795C59.1483 182.866 60.6657 183.474 62.2483 183.502H58.7166C57.1339 183.474 55.6165 182.866 54.4514 181.795C53.2862 180.723 52.554 179.262 52.3933 177.687L42.3562 62.7633C42.2739 62.0216 42.3509 61.2709 42.5822 60.5614C42.8135 59.8519 43.1937 59.2001 43.6974 58.6494C44.2011 58.0988 44.8166 57.6622 45.5027 57.3688C46.1889 57.0754 46.9298 56.932 47.6759 56.9481Z" fill="#407BFF"/>
<path opacity="0.3" d="M47.6759 56.9481H51.1951C50.4504 56.9348 49.7113 57.0802 49.0272 57.3748C48.3431 57.6693 47.7295 58.1062 47.2274 58.6564C46.7253 59.2066 46.3462 59.8574 46.1152 60.5656C45.8843 61.2737 45.8068 62.0229 45.888 62.7633L55.925 177.687C56.0858 179.262 56.818 180.723 57.9832 181.795C59.1483 182.866 60.6657 183.474 62.2483 183.502H58.7166C57.1339 183.474 55.6165 182.866 54.4514 181.795C53.2862 180.723 52.554 179.262 52.3933 177.687L42.3562 62.7633C42.2739 62.0216 42.3509 61.2709 42.5822 60.5614C42.8135 59.8519 43.1937 59.2001 43.6974 58.6494C44.2011 58.0988 44.8166 57.6622 45.5027 57.3688C46.1889 57.0754 46.9298 56.932 47.6759 56.9481Z" fill="white"/>
<path opacity="0.2" d="M188.388 140.939H100.132L95.5649 88.803H183.828L188.388 140.939Z" fill="#263238"/>
<path d="M152.38 109.115C152.535 110.515 152.389 111.931 151.953 113.27C151.516 114.609 150.799 115.839 149.849 116.878C148.899 117.917 147.738 118.742 146.443 119.296C145.149 119.851 143.751 120.122 142.343 120.093C139.358 120.037 136.497 118.888 134.301 116.866C132.105 114.843 130.726 112.086 130.424 109.115C130.27 107.716 130.415 106.299 130.852 104.961C131.289 103.622 132.006 102.392 132.956 101.353C133.906 100.314 135.067 99.4892 136.362 98.9347C137.656 98.3802 139.054 98.1084 140.461 98.1375C143.446 98.1956 146.306 99.3444 148.502 101.367C150.698 103.389 152.078 106.146 152.38 109.115Z" fill="white"/>
<path d="M147.425 109.523L137.821 104.241L138.749 114.799L147.425 109.523Z" fill="#263238"/>
<path d="M186.325 130.708H100.402L100.251 129.014H186.174L186.325 130.708Z" fill="white"/>
<path d="M148.567 130.708H100.402L100.251 129.014H148.416L148.567 130.708Z" fill="#407BFF"/>
<path d="M101.875 136.974H101.047L100.765 133.719H101.593L101.875 136.974Z" fill="white"/>
<path d="M103.324 136.974H102.496L102.214 133.719H103.042L103.324 136.974Z" fill="white"/>
<path d="M110.771 136.974H107.515L107.233 133.719H110.489L110.771 136.974Z" fill="white"/>
<path d="M115.093 135.343L117.772 133.719L118.054 136.974L115.093 135.343Z" fill="white"/>
<path d="M115.237 136.974H114.403L114.121 133.719H114.949L115.237 136.974Z" fill="white"/>
<path d="M124.239 135.343L121.272 133.719L121.561 136.974L124.239 135.343Z" fill="white"/>
<path d="M124.377 136.974H125.211L124.923 133.719H124.095L124.377 136.974Z" fill="white"/>
<path d="M130.293 133.656L128.837 135.619H132.093L130.293 133.656Z" fill="white"/>
<path d="M132.282 137.037L132.206 136.203H128.831L128.9 137.037H132.282Z" fill="white"/>
<path d="M186.939 137.238H180.666L180.327 133.392H186.601L186.939 137.238ZM181.137 136.705H186.356L186.111 133.926H180.898L181.137 136.705Z" fill="white"/>
<path d="M176.024 137.238H174.751L174.65 136.109L175.183 136.065L175.24 136.705H176.024V137.238Z" fill="white"/>
<path d="M178.841 137.238H177.561V136.705H178.257L178.207 136.109L178.74 136.065L178.841 137.238Z" fill="white"/>
<path d="M178.075 134.616L178.019 133.926H177.272V133.392H178.508L178.608 134.572L178.075 134.616Z" fill="white"/>
<path d="M174.518 134.616L174.412 133.392H175.729V133.926H174.995L175.051 134.572L174.518 134.616Z" fill="white"/>
<g opacity="0.1">
<path d="M176.626 129.02L176.237 130.708L175.56 133.656L174.939 136.372L173.891 140.939H176.494L178.144 133.656L178.816 130.708L179.198 129.02L185.076 103.1" fill="white"/>
<path d="M176.495 141.253H173.897C173.849 141.253 173.802 141.242 173.758 141.222C173.715 141.201 173.677 141.171 173.647 141.133C173.618 141.097 173.598 141.054 173.588 141.008C173.578 140.963 173.579 140.915 173.59 140.87L176.319 128.951C176.338 128.868 176.389 128.796 176.462 128.75C176.534 128.705 176.621 128.69 176.705 128.71C176.788 128.729 176.86 128.78 176.905 128.852C176.951 128.925 176.965 129.012 176.946 129.095L174.305 140.632H176.275L184.8 103.037C184.809 102.996 184.826 102.957 184.85 102.922C184.875 102.887 184.905 102.858 184.941 102.835C184.976 102.812 185.016 102.797 185.058 102.79C185.099 102.782 185.142 102.783 185.183 102.792C185.224 102.801 185.263 102.818 185.298 102.842C185.332 102.867 185.362 102.897 185.384 102.933C185.407 102.968 185.423 103.008 185.43 103.049C185.437 103.091 185.437 103.134 185.427 103.175L176.802 141.008C176.785 141.077 176.746 141.139 176.69 141.183C176.635 141.227 176.566 141.252 176.495 141.253Z" fill="#263238"/>
</g>
<path d="M183.828 88.8031H95.565L95.1572 84.0857H183.414L183.828 88.8031Z" fill="#407BFF"/>
<path d="M101.819 86.4757C101.841 86.6616 101.822 86.8501 101.765 87.0283C101.707 87.2065 101.612 87.3704 101.486 87.5088C101.36 87.6473 101.206 87.7572 101.034 87.8311C100.862 87.905 100.676 87.9412 100.489 87.9373C100.092 87.9299 99.712 87.7769 99.4205 87.5075C99.129 87.238 98.9468 86.8708 98.9084 86.4757C98.8888 86.2904 98.9088 86.103 98.967 85.926C99.0252 85.749 99.1203 85.5864 99.246 85.4488C99.3717 85.3113 99.5251 85.202 99.6962 85.1281C99.8672 85.0542 100.052 85.0175 100.238 85.0203C100.634 85.0275 101.014 85.1796 101.305 85.4478C101.596 85.716 101.779 86.0817 101.819 86.4757Z" fill="white"/>
<path d="M106.185 86.4757C106.206 86.6614 106.186 86.8495 106.129 87.0272C106.071 87.205 105.976 87.3684 105.85 87.5067C105.724 87.6449 105.571 87.7548 105.399 87.8291C105.228 87.9033 105.042 87.9402 104.855 87.9373C104.457 87.9315 104.075 87.7792 103.783 87.5095C103.49 87.2399 103.307 86.8718 103.268 86.4757C103.249 86.2904 103.269 86.103 103.327 85.926C103.385 85.749 103.48 85.5864 103.606 85.4488C103.732 85.3113 103.885 85.202 104.056 85.1281C104.227 85.0542 104.412 85.0175 104.598 85.0203C104.994 85.0287 105.374 85.181 105.666 85.4488C105.958 85.7167 106.143 86.0817 106.185 86.4757Z" fill="white"/>
<path d="M110.545 86.4757C110.566 86.6614 110.546 86.8495 110.489 87.0272C110.431 87.205 110.336 87.3684 110.21 87.5067C110.084 87.6449 109.931 87.7548 109.759 87.8291C109.587 87.9033 109.402 87.9402 109.215 87.9373C108.818 87.9287 108.438 87.7755 108.145 87.5064C107.853 87.2373 107.669 86.8708 107.628 86.4757C107.609 86.2904 107.629 86.103 107.687 85.926C107.745 85.749 107.84 85.5864 107.966 85.4488C108.091 85.3113 108.245 85.202 108.416 85.1281C108.587 85.0542 108.772 85.0175 108.958 85.0203C109.354 85.0287 109.734 85.181 110.026 85.4488C110.318 85.7167 110.503 86.0817 110.545 86.4757Z" fill="white"/>
<g opacity="0.1">
<path d="M117.05 60.4611H110.94L89.4109 161.747H95.5209L117.05 60.4611Z" fill="white"/>
<path d="M83.238 161.747L104.767 60.4611H81.814L60.2847 161.747H83.238Z" fill="white"/>
</g>
<path opacity="0.2" d="M114.171 217.954V219.635C114.173 220.074 114.348 220.493 114.658 220.802C114.969 221.112 115.389 221.285 115.827 221.285H170.177C170.385 221.286 170.59 221.246 170.782 221.167C170.974 221.088 171.148 220.973 171.295 220.826C171.442 220.68 171.558 220.506 171.638 220.315C171.717 220.123 171.758 219.918 171.758 219.711V217.948C171.758 217.529 171.592 217.127 171.295 216.83C170.999 216.534 170.597 216.367 170.177 216.367H153.867C153.656 216.368 153.446 216.345 153.24 216.298H115.808C115.372 216.303 114.956 216.48 114.649 216.79C114.343 217.1 114.171 217.518 114.171 217.954Z" fill="white"/>
<path opacity="0.2" d="M102.979 216.298H153.221C152.56 216.163 151.965 215.806 151.534 215.287C151.103 214.769 150.862 214.118 150.85 213.444H104.259L102.979 216.298Z" fill="black"/>
<path d="M208.306 108.99H145.512L145.066 103.946H207.866L208.306 108.99Z" fill="#263238"/>
<path d="M152.192 106.506C152.215 106.704 152.195 106.904 152.133 107.094C152.072 107.284 151.971 107.458 151.836 107.605C151.702 107.752 151.538 107.869 151.355 107.948C151.172 108.027 150.974 108.065 150.775 108.062C150.351 108.054 149.944 107.892 149.632 107.605C149.32 107.319 149.124 106.927 149.081 106.506C149.058 106.308 149.079 106.107 149.14 105.918C149.202 105.728 149.303 105.554 149.437 105.406C149.571 105.259 149.735 105.142 149.918 105.063C150.102 104.985 150.299 104.946 150.499 104.95C150.922 104.957 151.329 105.119 151.641 105.406C151.953 105.693 152.149 106.084 152.192 106.506Z" fill="white"/>
<path d="M156.828 106.506C156.85 106.704 156.83 106.904 156.769 107.094C156.707 107.284 156.606 107.458 156.472 107.605C156.338 107.752 156.174 107.869 155.991 107.948C155.807 108.027 155.61 108.065 155.41 108.062C154.987 108.054 154.58 107.892 154.268 107.605C153.956 107.319 153.76 106.927 153.717 106.506C153.694 106.308 153.714 106.107 153.776 105.918C153.837 105.728 153.938 105.554 154.073 105.406C154.207 105.259 154.371 105.142 154.554 105.063C154.737 104.985 154.935 104.946 155.134 104.95C155.558 104.957 155.965 105.119 156.277 105.406C156.589 105.693 156.785 106.084 156.828 106.506Z" fill="white"/>
<path d="M161.514 106.506C161.537 106.704 161.516 106.904 161.455 107.094C161.393 107.284 161.292 107.458 161.158 107.605C161.024 107.752 160.86 107.869 160.677 107.948C160.493 108.027 160.296 108.065 160.096 108.062C159.673 108.054 159.266 107.892 158.954 107.605C158.642 107.319 158.446 106.927 158.403 106.506C158.38 106.308 158.4 106.107 158.462 105.918C158.523 105.728 158.624 105.554 158.759 105.406C158.893 105.259 159.057 105.142 159.24 105.063C159.423 104.985 159.621 104.946 159.82 104.95C160.244 104.957 160.651 105.119 160.963 105.406C161.275 105.693 161.471 106.084 161.514 106.506Z" fill="white"/>
<path opacity="0.2" d="M147.481 170.874L141.986 108.08H204.786L210.282 170.874H147.481Z" fill="black"/>
<path d="M213.362 166.747H150.561L145.066 103.946H207.866L213.362 166.747Z" fill="#407BFF"/>
<path d="M194.894 140.525C195.841 151.359 189.405 155.75 180.999 155.75C172.593 155.75 165.178 148.912 164.444 140.525C163.71 132.138 169.588 121.392 177.994 121.392C177.994 121.392 194.022 130.613 194.894 140.525Z" fill="#407BFF"/>
<path d="M184.951 142.288C185.139 144.477 183.508 145.939 180.779 146.171L180.578 147.978H178.935L179.135 146.171C177.755 146.073 176.418 145.643 175.24 144.916L176.168 142.877C177.126 143.526 178.229 143.927 179.38 144.044L179.694 141.265C178.125 140.801 176.394 140.193 176.218 138.204C176.024 136.015 177.693 134.534 180.472 134.34L180.672 132.527H182.316L182.115 134.359C183.216 134.439 184.286 134.758 185.252 135.293L184.43 137.319C183.67 136.847 182.811 136.555 181.921 136.466L181.601 139.358C183.106 139.804 184.781 140.393 184.951 142.288ZM179.932 138.9L180.196 136.529C179.28 136.711 178.797 137.219 178.834 137.846C178.897 138.355 179.336 138.649 179.951 138.875L179.932 138.9ZM182.303 142.714C182.259 142.238 181.858 141.943 181.262 141.729L181.017 143.982C181.921 143.8 182.379 143.342 182.322 142.714H182.303Z" fill="#407BFF"/>
<path d="M193.521 139.799C193.792 134.366 188.977 129.71 182.765 129.4C176.553 129.089 171.297 133.241 171.025 138.674C170.754 144.106 175.569 148.762 181.781 149.072C187.993 149.383 193.249 145.231 193.521 139.799Z" fill="#263238"/>
<path d="M170.177 141.115C173 145.983 179.769 147.977 185.302 145.569C190.835 143.16 193.03 137.257 190.207 132.395C187.385 127.533 180.61 125.532 175.077 127.941C169.544 130.35 167.354 136.247 170.177 141.115Z" fill="#407BFF"/>
<path opacity="0.4" d="M170.177 141.115C173 145.983 179.769 147.977 185.302 145.569C190.835 143.16 193.03 137.257 190.207 132.395C187.385 127.533 180.61 125.532 175.077 127.941C169.544 130.35 167.354 136.247 170.177 141.115Z" fill="white"/>
<path d="M172.592 139.866C172.724 140.098 172.881 140.324 173.019 140.531C173.019 140.531 173.019 140.569 173.05 140.581C175.409 143.718 180.076 144.885 183.922 143.21C187.767 141.535 189.498 137.564 188.005 134.07C188.005 134.07 187.968 134.07 187.974 134.02C187.861 133.794 187.748 133.556 187.61 133.323C185.496 129.679 180.409 128.186 176.262 129.992C172.116 131.799 170.478 136.222 172.592 139.866Z" fill="#407BFF"/>
<path opacity="0.3" d="M173.019 140.531C173.019 140.531 173.019 140.569 173.05 140.581C175.409 143.718 180.076 144.885 183.922 143.21C187.767 141.535 189.499 137.564 188.006 134.07C188.006 134.07 187.968 134.07 187.974 134.02C185.622 130.883 180.948 129.716 177.078 131.404C173.207 133.091 171.532 137.037 173.019 140.531Z" fill="white"/>
<g opacity="0.4">
<path d="M183.131 138.492C183.382 139.935 182.391 140.901 180.622 141.052L180.591 142.244H179.506L179.537 141.052C178.603 140.986 177.698 140.7 176.896 140.218L177.385 138.875C178.043 139.298 178.791 139.56 179.568 139.64L179.619 137.809C178.558 137.508 177.379 137.106 177.147 135.789C176.896 134.346 177.906 133.374 179.731 133.242V132.05H180.817V133.254C181.552 133.32 182.267 133.534 182.918 133.882L182.498 135.23C181.972 134.921 181.386 134.728 180.779 134.666L180.735 136.548C181.77 136.855 182.912 137.244 183.131 138.492ZM179.637 136.259L179.681 134.697C179.054 134.816 178.79 135.149 178.853 135.563C178.916 135.977 179.217 136.096 179.637 136.259ZM181.425 138.768C181.369 138.455 181.086 138.26 180.679 138.141V139.628C181.212 139.502 181.494 139.189 181.425 138.775V138.768Z" fill="white"/>
</g>
<path d="M177.267 120.594C177.359 121.613 177.243 122.48 176.92 123.195C176.599 123.91 176.123 124.456 175.491 124.833C174.862 125.207 174.134 125.394 173.306 125.394C172.472 125.394 171.707 125.205 171.011 124.828C170.314 124.451 169.741 123.905 169.292 123.19C168.843 122.475 168.572 121.61 168.481 120.594C168.389 119.575 168.504 118.708 168.824 117.993C169.145 117.279 169.619 116.734 170.248 116.36C170.877 115.983 171.608 115.794 172.442 115.794C173.27 115.794 174.032 115.983 174.729 116.36C175.428 116.734 176.002 117.279 176.451 117.993C176.904 118.708 177.176 119.575 177.267 120.594ZM175.256 120.594C175.197 119.934 175.047 119.377 174.808 118.924C174.572 118.471 174.265 118.127 173.886 117.893C173.508 117.659 173.079 117.542 172.599 117.542C172.12 117.542 171.712 117.659 171.376 117.893C171.04 118.127 170.793 118.471 170.635 118.924C170.48 119.377 170.433 119.934 170.492 120.594C170.551 121.254 170.699 121.811 170.936 122.264C171.175 122.717 171.484 123.061 171.862 123.295C172.24 123.529 172.669 123.646 173.149 123.646C173.628 123.646 174.036 123.529 174.372 123.295C174.709 123.061 174.954 122.717 175.109 122.264C175.266 121.811 175.316 121.254 175.256 120.594ZM180.707 121.215L181.072 125.266H179.12L178.49 118.258H180.35L180.461 119.495H180.543C180.662 119.087 180.895 118.765 181.24 118.527C181.584 118.287 182.018 118.167 182.54 118.167C183.029 118.167 183.464 118.273 183.847 118.486C184.23 118.699 184.54 119.003 184.777 119.399C185.014 119.791 185.156 120.26 185.205 120.804L185.607 125.266H183.656L183.285 121.151C183.25 120.722 183.11 120.387 182.865 120.147C182.62 119.904 182.302 119.782 181.911 119.782C181.649 119.782 181.422 119.838 181.23 119.951C181.042 120.063 180.901 120.228 180.807 120.444C180.717 120.656 180.683 120.914 180.707 121.215ZM171.574 131.858L172.415 141.202H170.464L169.623 131.858H171.574ZM175.42 143.83C175.173 143.83 174.939 143.81 174.718 143.77C174.501 143.734 174.32 143.687 174.174 143.629L174.483 142.178C174.719 142.248 174.928 142.286 175.112 142.292C175.299 142.298 175.455 142.256 175.582 142.164C175.711 142.073 175.808 141.918 175.874 141.699L175.962 141.402L172.789 134.194H174.841L176.761 139.34H176.835L177.842 134.194H179.908L177.872 141.959C177.775 142.336 177.625 142.665 177.425 142.945C177.227 143.227 176.964 143.445 176.636 143.597C176.308 143.752 175.903 143.83 175.42 143.83Z" fill="white"/>
<path d="M166.86 154.372L167.462 161.06H166.042L165.561 155.714H165.522L164.071 156.674L163.958 155.42L165.526 154.372H166.86ZM171.389 161.896L170.637 153.536H171.175L171.927 161.896H171.389ZM172.312 156.295C172.262 156.032 172.131 155.827 171.919 155.681C171.707 155.535 171.43 155.462 171.089 155.462C170.857 155.462 170.665 155.495 170.511 155.56C170.357 155.623 170.243 155.712 170.168 155.825C170.095 155.938 170.065 156.066 170.078 156.21C170.084 156.33 170.119 156.434 170.181 156.524C170.246 156.613 170.331 156.69 170.435 156.756C170.539 156.819 170.658 156.874 170.791 156.922C170.924 156.968 171.065 157.007 171.215 157.04L171.831 157.183C172.13 157.249 172.406 157.336 172.661 157.445C172.916 157.553 173.14 157.687 173.333 157.846C173.527 158.005 173.682 158.192 173.8 158.408C173.92 158.624 173.994 158.871 174.021 159.149C174.056 159.559 173.983 159.913 173.802 160.214C173.623 160.512 173.347 160.744 172.973 160.909C172.601 161.073 172.141 161.154 171.595 161.154C171.053 161.154 170.573 161.072 170.156 160.906C169.741 160.741 169.406 160.496 169.152 160.171C168.9 159.845 168.746 159.441 168.692 158.96H170.066C170.102 159.184 170.183 159.371 170.31 159.522C170.439 159.67 170.603 159.782 170.803 159.858C171.004 159.932 171.227 159.969 171.472 159.969C171.712 159.969 171.918 159.934 172.089 159.864C172.262 159.795 172.392 159.698 172.479 159.574C172.566 159.45 172.602 159.307 172.588 159.146C172.574 158.996 172.518 158.87 172.419 158.767C172.323 158.665 172.186 158.578 172.009 158.506C171.834 158.434 171.622 158.369 171.372 158.31L170.624 158.127C170.045 157.99 169.579 157.776 169.225 157.484C168.871 157.192 168.673 156.799 168.63 156.305C168.592 155.9 168.668 155.546 168.859 155.244C169.053 154.941 169.334 154.705 169.704 154.535C170.073 154.365 170.503 154.28 170.992 154.28C171.491 154.28 171.934 154.365 172.32 154.535C172.709 154.705 173.021 154.941 173.256 155.244C173.491 155.546 173.63 155.897 173.672 156.295H172.312ZM177.416 154.058L175.973 162.066H174.77L176.213 154.058H177.416ZM165.54 172.015L165.088 166.999H166.42L166.499 167.884H166.558C166.637 167.59 166.791 167.359 167.02 167.189C167.25 167.019 167.535 166.934 167.876 166.934C168.222 166.934 168.523 167.02 168.781 167.192C169.039 167.362 169.222 167.593 169.329 167.884H169.381C169.458 167.597 169.623 167.367 169.877 167.195C170.132 167.021 170.445 166.934 170.814 166.934C171.284 166.934 171.679 167.083 171.999 167.381C172.32 167.678 172.506 168.098 172.555 168.642L172.858 172.015H171.465L171.186 168.916C171.161 168.638 171.068 168.429 170.907 168.289C170.745 168.15 170.553 168.08 170.33 168.08C170.077 168.08 169.886 168.161 169.759 168.322C169.631 168.481 169.579 168.691 169.602 168.952L169.878 172.015H168.524L168.242 168.887C168.22 168.641 168.131 168.445 167.976 168.299C167.823 168.153 167.632 168.08 167.402 168.08C167.247 168.08 167.111 168.119 166.993 168.198C166.878 168.274 166.79 168.382 166.73 168.521C166.671 168.658 166.649 168.819 166.666 169.004L166.937 172.015H165.54ZM176.246 172.113C175.737 172.113 175.287 172.006 174.896 171.79C174.507 171.572 174.194 171.27 173.958 170.882C173.722 170.493 173.581 170.041 173.534 169.527C173.488 169.009 173.548 168.556 173.714 168.168C173.88 167.779 174.138 167.476 174.488 167.261C174.84 167.043 175.271 166.934 175.78 166.934C176.289 166.934 176.738 167.043 177.127 167.261C177.518 167.476 177.832 167.779 178.068 168.168C178.304 168.556 178.445 169.009 178.492 169.527C178.538 170.041 178.478 170.493 178.312 170.882C178.146 171.27 177.887 171.572 177.535 171.79C177.185 172.006 176.755 172.113 176.246 172.113ZM176.156 171.036C176.387 171.036 176.575 170.97 176.718 170.84C176.862 170.707 176.962 170.526 177.02 170.298C177.081 170.069 177.098 169.809 177.071 169.517C177.045 169.225 176.981 168.965 176.88 168.737C176.781 168.508 176.647 168.327 176.48 168.195C176.313 168.062 176.114 167.995 175.882 167.995C175.648 167.995 175.457 168.062 175.31 168.195C175.164 168.327 175.061 168.508 175.001 168.737C174.943 168.965 174.927 169.225 174.953 169.517C174.98 169.809 175.042 170.069 175.142 170.298C175.243 170.526 175.378 170.707 175.548 170.84C175.719 170.97 175.922 171.036 176.156 171.036ZM180.76 169.115L181.021 172.015H179.624L179.173 166.999H180.504L180.584 167.884H180.643C180.728 167.593 180.894 167.362 181.141 167.192C181.388 167.02 181.698 166.934 182.072 166.934C182.422 166.934 182.734 167.01 183.008 167.163C183.281 167.315 183.503 167.533 183.673 167.816C183.842 168.097 183.945 168.432 183.98 168.822L184.267 172.015H182.87L182.605 169.07C182.58 168.763 182.48 168.523 182.305 168.351C182.129 168.177 181.902 168.09 181.622 168.09C181.434 168.09 181.272 168.13 181.135 168.211C181 168.291 180.899 168.409 180.832 168.564C180.767 168.716 180.743 168.9 180.76 169.115ZM187.596 166.999L187.69 168.044H184.657L184.563 166.999H187.596ZM185.143 165.798H186.54L186.961 170.474C186.972 170.602 187.001 170.703 187.047 170.774C187.092 170.844 187.151 170.893 187.224 170.921C187.299 170.95 187.383 170.964 187.477 170.964C187.543 170.964 187.608 170.958 187.672 170.948C187.737 170.934 187.786 170.925 187.82 170.918L188.133 171.953C188.065 171.975 187.969 172 187.845 172.028C187.721 172.059 187.568 172.077 187.388 172.084C187.052 172.097 186.753 172.052 186.49 171.95C186.23 171.848 186.02 171.689 185.86 171.473C185.701 171.258 185.608 170.986 185.58 170.657L185.143 165.798ZM190.201 169.115L190.462 172.015H189.065L188.463 165.327H189.821L190.051 167.884H190.11C190.197 167.588 190.36 167.356 190.598 167.189C190.836 167.019 191.147 166.934 191.529 166.934C191.879 166.934 192.191 167.01 192.465 167.163C192.74 167.313 192.963 167.529 193.133 167.812C193.305 168.093 193.407 168.43 193.44 168.822L193.728 172.015H192.331L192.066 169.07C192.04 168.761 191.94 168.52 191.765 168.348C191.592 168.176 191.363 168.09 191.079 168.09C190.889 168.09 190.724 168.13 190.585 168.211C190.448 168.291 190.345 168.409 190.276 168.564C190.209 168.716 190.184 168.9 190.201 169.115ZM167.593 176.283L167.886 180.966H166.686L166.134 176.283H167.593ZM167.475 183.056C167.258 183.056 167.065 182.98 166.897 182.827C166.727 182.673 166.634 182.488 166.617 182.272C166.596 182.059 166.656 181.876 166.797 181.724C166.939 181.571 167.118 181.495 167.334 181.495C167.542 181.495 167.731 181.571 167.902 181.724C168.073 181.876 168.17 182.059 168.191 182.272C168.202 182.416 168.175 182.548 168.112 182.667C168.05 182.785 167.964 182.88 167.852 182.952C167.74 183.021 167.614 183.056 167.475 183.056ZM170.587 176.283L170.88 180.966H169.68L169.127 176.283H170.587ZM170.468 183.056C170.252 183.056 170.059 182.98 169.89 182.827C169.721 182.673 169.628 182.488 169.611 182.272C169.589 182.059 169.649 181.876 169.791 181.724C169.932 181.571 170.111 181.495 170.328 181.495C170.535 181.495 170.725 181.571 170.896 181.724C171.067 181.876 171.163 182.059 171.185 182.272C171.195 182.416 171.169 182.548 171.105 182.667C171.044 182.785 170.957 182.88 170.846 182.952C170.734 183.021 170.608 183.056 170.468 183.056ZM173.58 176.283L173.874 180.966H172.674L172.121 176.283H173.58ZM173.462 183.056C173.245 183.056 173.053 182.98 172.884 182.827C172.715 182.673 172.622 182.488 172.604 182.272C172.583 182.059 172.643 181.876 172.784 181.724C172.926 181.571 173.105 181.495 173.321 181.495C173.529 181.495 173.718 181.571 173.889 181.724C174.061 181.876 174.157 182.059 174.178 182.272C174.189 182.416 174.163 182.548 174.099 182.667C174.037 182.785 173.951 182.88 173.839 182.952C173.728 183.021 173.602 183.056 173.462 183.056Z" fill="white"/>
<path d="M208.306 108.645H145.512L145.066 103.601H207.866L208.306 108.645Z" fill="#263238"/>
<path d="M152.192 106.161C152.215 106.359 152.195 106.559 152.133 106.749C152.072 106.939 151.971 107.113 151.836 107.26C151.702 107.407 151.538 107.524 151.355 107.603C151.172 107.682 150.974 107.72 150.775 107.716C150.351 107.709 149.944 107.547 149.632 107.26C149.32 106.974 149.124 106.582 149.081 106.161C149.058 105.963 149.079 105.762 149.14 105.573C149.202 105.383 149.303 105.209 149.437 105.061C149.571 104.914 149.735 104.797 149.918 104.718C150.102 104.64 150.299 104.601 150.499 104.605C150.922 104.612 151.329 104.774 151.641 105.061C151.953 105.348 152.149 105.739 152.192 106.161Z" fill="white"/>
<path d="M156.828 106.161C156.85 106.359 156.83 106.559 156.769 106.749C156.707 106.939 156.606 107.113 156.472 107.26C156.338 107.407 156.174 107.524 155.991 107.603C155.807 107.682 155.61 107.72 155.41 107.716C154.987 107.709 154.58 107.547 154.268 107.26C153.956 106.974 153.76 106.582 153.717 106.161C153.694 105.963 153.714 105.762 153.776 105.573C153.837 105.383 153.938 105.209 154.073 105.061C154.207 104.914 154.371 104.797 154.554 104.718C154.737 104.64 154.935 104.601 155.134 104.605C155.558 104.612 155.965 104.774 156.277 105.061C156.589 105.348 156.785 105.739 156.828 106.161Z" fill="white"/>
<path d="M161.514 106.161C161.537 106.359 161.516 106.559 161.455 106.749C161.393 106.939 161.292 107.113 161.158 107.26C161.024 107.407 160.86 107.524 160.677 107.603C160.493 107.682 160.296 107.72 160.096 107.716C159.673 107.709 159.266 107.547 158.954 107.26C158.642 106.974 158.446 106.582 158.403 106.161C158.38 105.963 158.4 105.762 158.462 105.573C158.523 105.383 158.624 105.209 158.759 105.061C158.893 104.914 159.057 104.797 159.24 104.718C159.423 104.64 159.621 104.601 159.82 104.605C160.244 104.612 160.651 104.774 160.963 105.061C161.275 105.348 161.471 105.739 161.514 106.161Z" fill="white"/>
<path opacity="0.2" d="M148.359 95.8039L143.222 37.0497H201.982L207.12 95.8039H148.359Z" fill="black"/>
<path d="M210.005 91.9459H151.245L146.107 33.1855H204.862L210.005 91.9459Z" fill="#407BFF"/>
<path d="M172.63 50.5559L169.832 46.0329C169.832 46.0329 171.382 42.7144 173.596 42.5953C175.811 42.4761 178.301 44.4333 178.301 44.4333L181.024 43.2539L179.593 51.2396C179.593 51.2396 175.974 54.3699 172.63 50.5559Z" fill="white"/>
<path d="M192.723 67.4117C193.607 77.5428 187.591 81.6517 179.725 81.6517C175.849 81.5827 172.132 80.0956 169.278 77.4716C166.424 74.8476 164.63 71.2686 164.237 67.4117C163.547 59.5452 169.048 49.5082 176.915 49.5082C176.902 49.5082 191.914 58.1337 192.723 67.4117Z" fill="#407BFF"/>
<path d="M192.723 67.4117C193.607 77.5428 187.591 81.6517 179.725 81.6517C175.849 81.5827 172.132 80.0956 169.278 77.4716C166.424 74.8476 164.63 71.2686 164.237 67.4117C163.547 59.5452 169.048 49.5082 176.915 49.5082C176.902 49.5082 191.914 58.1337 192.723 67.4117Z" fill="white"/>
<path d="M183.803 68.4279C184.518 70.4792 183.351 71.8468 180.854 72.06L181.105 73.7538H179.568L179.317 72.06C177.929 71.9494 176.58 71.5453 175.359 70.8744L175.723 68.9925C176.73 69.5867 177.853 69.9589 179.016 70.084L178.627 67.4869C177.046 67.0541 175.277 66.4832 174.625 64.6201C173.91 62.5751 175.102 61.1887 177.655 61.0068L177.398 59.313H178.941L179.198 61.0193C180.289 61.1164 181.352 61.4141 182.335 61.8976L182.065 63.7795C181.269 63.3463 180.395 63.0755 179.493 62.9828L179.901 65.6928C181.475 66.1068 183.175 66.6589 183.803 68.4279ZM178.289 65.2913L177.962 63.0769C177.141 63.2463 176.814 63.7042 177.003 64.3316C177.184 64.7519 177.668 65.0279 178.301 65.26L178.289 65.2913ZM181.425 68.8607C181.308 68.6238 181.138 68.4172 180.928 68.2572C180.718 68.0972 180.474 67.9881 180.214 67.9386L180.534 70.0464C181.337 69.8707 181.664 69.4128 181.456 68.8294L181.425 68.8607Z" fill="#407BFF"/>
<path opacity="0.1" d="M177.881 50.9008C177.348 49.1632 176.871 47.4067 176.344 45.669C176.061 45.4299 175.729 45.2564 175.371 45.161C175.013 45.0655 174.638 45.0505 174.274 45.117C173.944 45.1912 173.639 45.3516 173.391 45.5819C173.143 45.8123 172.961 46.1042 172.862 46.4281C173.343 47.9037 173.998 49.3167 174.813 50.6373C174.976 50.4125 175.197 50.2356 175.452 50.1252C175.707 50.0149 175.987 49.9751 176.262 50.01C176.58 50.034 176.889 50.126 177.168 50.2797C177.448 50.4334 177.69 50.6452 177.881 50.9008Z" fill="black"/>
<path opacity="0.1" d="M178.577 50.286C178.809 48.9498 178.922 47.5384 179.161 46.2022C178.872 46.3528 178.665 46.4971 178.383 46.6476C178.345 47.6701 178.107 50.1292 178.182 50.2797" fill="black"/>
<path d="M205.276 37.9029H146.515L146.107 33.1855H204.862L205.276 37.9029Z" fill="#263238"/>
<path d="M152.769 35.5755C152.791 35.7607 152.773 35.9483 152.716 36.1258C152.659 36.3032 152.564 36.4664 152.439 36.6043C152.313 36.7422 152.16 36.8516 151.989 36.9252C151.817 36.9988 151.632 37.0349 151.446 37.0309C151.049 37.0252 150.668 36.8738 150.375 36.6055C150.083 36.3371 149.899 35.9706 149.859 35.5755C149.838 35.3903 149.857 35.2028 149.915 35.0255C149.972 34.8482 150.067 34.6851 150.192 34.5469C150.317 34.4088 150.47 34.2987 150.641 34.2241C150.811 34.1495 150.996 34.1119 151.182 34.1139C151.58 34.1198 151.962 34.272 152.255 34.5417C152.548 34.8113 152.731 35.1794 152.769 35.5755Z" fill="white"/>
<path d="M157.135 35.5756C157.155 35.7609 157.135 35.9482 157.077 36.1252C157.019 36.3022 156.924 36.4649 156.798 36.6024C156.672 36.7399 156.519 36.8493 156.348 36.9231C156.177 36.997 155.992 37.0338 155.806 37.031C155.409 37.0253 155.027 36.8739 154.735 36.6055C154.442 36.3372 154.258 35.9706 154.218 35.5756C154.198 35.3877 154.218 35.1974 154.277 35.0179C154.336 34.8383 154.433 34.6736 154.562 34.5349C154.69 34.3962 154.847 34.2869 155.022 34.2142C155.196 34.1416 155.384 34.1074 155.573 34.114C155.966 34.1285 156.341 34.2844 156.628 34.5529C156.915 34.8215 157.095 35.1846 157.135 35.5756Z" fill="white"/>
<path d="M161.495 35.5756C161.515 35.7609 161.495 35.9482 161.437 36.1252C161.378 36.3022 161.283 36.4648 161.158 36.6024C161.032 36.7399 160.879 36.8492 160.708 36.9231C160.536 36.997 160.352 37.0337 160.165 37.0309C159.769 37.0226 159.39 36.8702 159.098 36.6024C158.805 36.3346 158.621 35.9696 158.578 35.5756C158.559 35.3903 158.579 35.2029 158.637 35.0259C158.695 34.8489 158.79 34.6863 158.916 34.5488C159.042 34.4112 159.195 34.3019 159.366 34.228C159.537 34.1542 159.722 34.1174 159.908 34.1202C160.305 34.1272 160.685 34.2791 160.977 34.5472C161.27 34.8153 161.454 35.1811 161.495 35.5756Z" fill="white"/>
<g opacity="0.2">
<path d="M132.3 183.734H66.0247L57.3804 84.9514H123.656L132.3 183.734Z" fill="black"/>
</g>
<path d="M136.403 178.496H70.1274L61.4893 79.7133H127.759L136.403 178.496Z" fill="#407BFF"/>
<g opacity="0.1">
<path d="M136.403 178.496H70.1274L61.4893 79.7133H127.759L136.403 178.496Z" fill="white"/>
</g>
<path d="M97.4154 107.604L104.404 99.7058L108.042 110.389L118.374 107.397L116.31 118.005L127.219 120.715L120.005 128.405L128.561 136.09L118.129 138.8L122.05 149.408L111.197 146.416L109.422 157.099L101.054 149.201L94.0655 157.099L90.4271 146.416L80.0953 149.408L82.1591 138.8L71.2502 136.09L78.4705 128.405L69.9077 120.715L80.3399 118.005L76.4192 107.397L87.278 110.389L89.047 99.7058L97.4154 107.604Z" fill="#F5F5F5"/>
<path d="M91.8385 122.741C92.1456 123.017 92.3818 123.363 92.527 123.749C92.6722 124.136 92.7222 124.552 92.6728 124.961C92.6342 125.551 92.437 126.119 92.102 126.605C91.7335 127.123 91.2302 127.531 90.6466 127.784C89.9216 128.101 89.1353 128.254 88.3444 128.23C87.6573 128.233 86.9732 128.14 86.3119 127.954C85.7153 127.802 85.1532 127.538 84.6558 127.176L85.6846 125.426C86.0596 125.719 86.4847 125.942 86.9392 126.084C87.4265 126.248 87.9371 126.33 88.451 126.329C88.9341 126.351 89.4133 126.234 89.8311 125.99C89.9932 125.89 90.1287 125.752 90.226 125.588C90.3232 125.425 90.3793 125.24 90.3894 125.049C90.415 124.863 90.3866 124.674 90.3076 124.504C90.2286 124.334 90.1024 124.19 89.944 124.089C89.3953 123.828 88.7873 123.715 88.1813 123.763H85.672L86.5691 118.218H92.585L92.4533 120.05H88.3381L88.0558 121.932H88.8588C90.2221 121.936 91.2154 122.205 91.8385 122.741Z" fill="#407BFF"/>
<path d="M95.4518 127.627C94.8245 127.197 94.3449 126.584 94.078 125.871C93.757 124.997 93.639 124.062 93.733 123.136C93.7795 122.18 94.0297 121.246 94.467 120.395C94.8421 119.675 95.403 119.068 96.0917 118.638C96.7614 118.226 97.5325 118.009 98.3187 118.011C99.0784 118.001 99.8235 118.22 100.458 118.638C101.085 119.069 101.565 119.682 101.832 120.395C102.155 121.27 102.275 122.207 102.183 123.136C102.135 124.09 101.882 125.023 101.443 125.871C101.07 126.592 100.508 127.199 99.8179 127.627C99.1485 128.04 98.3772 128.257 97.591 128.255C96.8314 128.263 96.0865 128.045 95.4518 127.627ZM99.2157 125.526C99.6544 124.805 99.8906 123.98 99.8995 123.136C100.021 122.321 99.9006 121.488 99.5545 120.74C99.422 120.496 99.2245 120.295 98.9842 120.158C98.7438 120.02 98.4699 119.952 98.1932 119.962C97.9052 119.961 97.6216 120.032 97.3677 120.168C97.1137 120.303 96.8973 120.5 96.7378 120.74C96.2925 121.46 96.0558 122.289 96.0541 123.136C95.9335 123.949 96.0535 124.78 96.3991 125.526C96.5273 125.769 96.7212 125.97 96.9586 126.108C97.196 126.245 97.4673 126.313 97.7415 126.304C98.0304 126.305 98.3151 126.234 98.5702 126.099C98.8252 125.963 99.0427 125.766 99.2032 125.526H99.2157Z" fill="#407BFF"/>
<path d="M103.833 122.791C103.615 122.513 103.454 122.195 103.361 121.855C103.267 121.514 103.242 121.159 103.287 120.809C103.309 120.071 103.602 119.368 104.109 118.833C104.346 118.591 104.631 118.4 104.945 118.273C105.259 118.145 105.596 118.084 105.934 118.092C106.257 118.077 106.578 118.136 106.874 118.264C107.169 118.392 107.432 118.587 107.641 118.833C107.857 119.11 108.016 119.427 108.107 119.767C108.199 120.106 108.221 120.46 108.174 120.809C108.156 121.547 107.865 122.253 107.358 122.791C107.123 123.031 106.84 123.22 106.528 123.346C106.216 123.473 105.882 123.533 105.546 123.525C105.223 123.54 104.902 123.481 104.605 123.354C104.309 123.227 104.045 123.035 103.833 122.791ZM106.411 121.982C106.639 121.632 106.763 121.226 106.769 120.809C106.826 120.409 106.758 120.001 106.574 119.642C106.501 119.517 106.395 119.414 106.268 119.345C106.141 119.275 105.998 119.241 105.853 119.247C105.7 119.246 105.55 119.281 105.414 119.351C105.279 119.421 105.162 119.523 105.075 119.648C104.843 119.991 104.717 120.395 104.711 120.809C104.652 121.207 104.723 121.614 104.912 121.969C104.984 122.095 105.088 122.198 105.214 122.269C105.34 122.34 105.483 122.375 105.627 122.371C105.779 122.373 105.93 122.339 106.066 122.271C106.203 122.204 106.321 122.104 106.411 121.982ZM111.8 118.218H113.475L106.016 128.06H104.341L111.8 118.218ZM110.671 127.86C110.312 127.632 110.031 127.299 109.868 126.906C109.685 126.451 109.615 125.958 109.661 125.47C109.69 124.966 109.831 124.475 110.075 124.033C110.295 123.642 110.617 123.319 111.008 123.098C111.398 122.877 111.841 122.766 112.289 122.778C112.613 122.763 112.936 122.822 113.234 122.95C113.532 123.078 113.797 123.273 114.008 123.519C114.227 123.795 114.387 124.112 114.48 124.451C114.572 124.791 114.595 125.146 114.547 125.495C114.528 126.232 114.235 126.937 113.726 127.471C113.49 127.713 113.206 127.903 112.893 128.031C112.58 128.158 112.244 128.22 111.906 128.211C111.468 128.211 111.039 128.084 110.671 127.847V127.86ZM112.772 126.605C112.999 126.26 113.123 125.857 113.13 125.444C113.183 125.047 113.115 124.642 112.935 124.284C112.863 124.157 112.756 124.052 112.628 123.981C112.5 123.91 112.354 123.876 112.208 123.882C112.057 123.882 111.908 123.918 111.774 123.987C111.64 124.055 111.524 124.155 111.436 124.278C111.203 124.623 111.077 125.028 111.072 125.444C111.012 125.845 111.082 126.254 111.273 126.611C111.345 126.736 111.45 126.838 111.576 126.908C111.702 126.977 111.844 127.011 111.988 127.006C112.141 127.011 112.292 126.977 112.428 126.909C112.565 126.842 112.683 126.741 112.772 126.618V126.605Z" fill="#407BFF"/>
<path d="M86.8388 142.118C86.0714 141.704 85.4446 141.071 85.0384 140.299C84.62 139.495 84.4415 138.587 84.5241 137.683C84.5816 136.75 84.8869 135.85 85.4086 135.074C85.9258 134.298 86.6346 133.669 87.4661 133.248C88.3387 132.816 89.3029 132.6 90.2765 132.621C91.221 132.591 92.1569 132.808 92.9928 133.248C93.7571 133.669 94.3826 134.304 94.7932 135.074C95.2142 135.875 95.395 136.782 95.3138 137.683C95.2531 138.619 94.9458 139.521 94.423 140.299C93.9008 141.069 93.1932 141.694 92.3655 142.118C91.4975 142.567 90.5323 142.796 89.5551 142.783C88.6071 142.803 87.6704 142.574 86.8388 142.118ZM91.299 140.437C91.7857 140.176 92.1947 139.791 92.4846 139.321C92.792 138.827 92.969 138.264 92.999 137.683C93.0527 137.124 92.9552 136.561 92.7168 136.052C92.4928 135.584 92.1347 135.193 91.688 134.929C91.217 134.659 90.6817 134.52 90.1385 134.528C89.5799 134.525 89.0296 134.663 88.5389 134.929C88.054 135.196 87.6458 135.583 87.3532 136.052C87.0439 136.543 86.8647 137.104 86.8326 137.683C86.7797 138.245 86.8794 138.811 87.1211 139.321C87.3412 139.788 87.6977 140.177 88.1436 140.437C88.6134 140.711 89.1495 140.85 89.6931 140.839C90.254 140.845 90.8071 140.707 91.299 140.437Z" fill="#407BFF"/>
<path d="M99.5294 134.584L99.3475 137.194H103.908L103.776 139.026H99.2157L98.9585 142.614H96.6814L97.3777 132.753H104.83L104.698 134.584H99.5294Z" fill="#407BFF"/>
<path d="M108.525 134.584L108.337 137.194H112.916L112.784 139.026H108.224L107.96 142.639H105.677L106.38 132.778H113.826L113.7 134.61L108.525 134.584Z" fill="#407BFF"/>
<path d="M128.342 86.3252H62.0539L61.4768 79.7133H127.759L128.342 86.3252Z" fill="#263238"/>
<path d="M70.8173 83.0443C70.8462 83.3058 70.8186 83.5703 70.7364 83.8202C70.6542 84.07 70.5194 84.2993 70.341 84.4926C70.1626 84.6859 69.9448 84.8386 69.7023 84.9405C69.4598 85.0423 69.1983 85.091 68.9354 85.0831C68.381 85.0722 67.8498 84.8589 67.4419 84.4833C67.034 84.1077 66.7776 83.5959 66.721 83.0443C66.6922 82.7826 66.7199 82.5178 66.802 82.2676C66.8841 82.0175 67.0189 81.7878 67.1971 81.5941C67.3754 81.4003 67.5931 81.247 67.8356 81.1444C68.0781 81.0418 68.3397 80.9924 68.6029 80.9993C69.1583 81.0104 69.6903 81.2246 70.0984 81.6014C70.5064 81.9783 70.7622 82.4916 70.8173 83.0443Z" fill="white"/>
<path d="M76.9335 83.0443C76.9623 83.3058 76.9347 83.5703 76.8525 83.8202C76.7704 84.07 76.6355 84.2993 76.4571 84.4926C76.2787 84.6859 76.0609 84.8386 75.8184 84.9405C75.576 85.0423 75.3144 85.091 75.0515 85.0831C74.4965 85.0724 73.9645 84.8593 73.5555 84.4838C73.1466 84.1084 72.8889 83.5965 72.8309 83.0443C72.8021 82.7826 72.8297 82.5178 72.9119 82.2676C72.994 82.0175 73.1287 81.7878 73.307 81.5941C73.4853 81.4003 73.703 81.247 73.9455 81.1444C74.188 81.0418 74.4496 80.9924 74.7128 80.9993C75.2688 81.0102 75.8016 81.2242 76.2107 81.6009C76.6198 81.9777 76.8769 82.4911 76.9335 83.0443Z" fill="white"/>
<path d="M83.0499 83.0443C83.0788 83.3058 83.0512 83.5703 82.969 83.8202C82.8868 84.07 82.752 84.2993 82.5736 84.4926C82.3952 84.6859 82.1774 84.8386 81.9349 84.9405C81.6924 85.0423 81.4309 85.091 81.168 85.0831C80.6125 85.0737 80.0798 84.8611 79.6706 84.4854C79.2613 84.1097 79.004 83.597 78.9473 83.0443C78.9186 82.7826 78.9462 82.5178 79.0283 82.2676C79.1104 82.0175 79.2452 81.7878 79.4235 81.5941C79.6018 81.4003 79.8195 81.247 80.0619 81.1444C80.3044 81.0418 80.5661 80.9924 80.8292 80.9993C81.3853 81.0102 81.9181 81.2242 82.3272 81.6009C82.7363 81.9777 82.9934 82.4911 83.0499 83.0443Z" fill="white"/>
<path opacity="0.2" d="M151.095 71.7652H56.3767L55.0845 56.9481H149.802L151.095 71.7652Z" fill="black"/>
<path d="M154.294 67.9261H59.5697L54.7332 12.5908H149.457L154.294 67.9261Z" fill="#407BFF"/>
<path opacity="0.1" d="M154.294 67.9261H59.5697L54.7332 12.5908H149.457L154.294 67.9261Z" fill="white"/>
<path d="M149.84 17.0196H55.1221L54.7332 12.5908H149.457L149.84 17.0196Z" fill="#263238"/>
<path d="M61.006 14.8365C61.0217 15.0105 61.0009 15.1859 60.9449 15.3514C60.889 15.5169 60.799 15.6689 60.6809 15.7976C60.5628 15.9264 60.4191 16.029 60.2591 16.099C60.099 16.169 59.9261 16.2048 59.7513 16.2041C59.3789 16.1982 59.0216 16.0556 58.7475 15.8035C58.4734 15.5513 58.3015 15.2072 58.2646 14.8365C58.2489 14.6625 58.2697 14.4872 58.3256 14.3217C58.3816 14.1562 58.4715 14.0042 58.5896 13.8755C58.7078 13.7467 58.8515 13.6441 59.0115 13.5741C59.1716 13.5041 59.3445 13.4683 59.5192 13.469C59.8913 13.4762 60.2478 13.6193 60.5216 13.8712C60.7955 14.1231 60.9678 14.4664 61.006 14.8365Z" fill="white"/>
<path d="M65.1026 14.8365C65.1184 15.0105 65.0976 15.1859 65.0416 15.3514C64.9856 15.5169 64.8957 15.6689 64.7776 15.7976C64.6595 15.9264 64.5158 16.029 64.3557 16.099C64.1957 16.169 64.0227 16.2048 63.848 16.2041C63.4756 16.1982 63.1183 16.0556 62.8442 15.8035C62.5701 15.5513 62.3982 15.2072 62.3613 14.8365C62.3456 14.6625 62.3664 14.4872 62.4223 14.3217C62.4783 14.1562 62.5682 14.0042 62.6863 13.8755C62.8044 13.7467 62.9481 13.6441 63.1082 13.5741C63.2683 13.5041 63.4412 13.4683 63.6159 13.469C63.9888 13.4735 64.3468 13.6156 64.6212 13.868C64.8956 14.1205 65.0671 14.4654 65.1026 14.8365Z" fill="white"/>
<path d="M69.2051 14.8365C69.2208 15.0105 69.2 15.1859 69.144 15.3514C69.0881 15.5169 68.9981 15.6689 68.88 15.7976C68.7619 15.9264 68.6182 16.029 68.4582 16.099C68.2981 16.169 68.1252 16.2048 67.9504 16.2041C67.5831 16.192 67.2327 16.0465 66.9648 15.7948C66.697 15.5431 66.53 15.2025 66.4951 14.8365C66.4794 14.6625 66.5001 14.4872 66.5561 14.3217C66.6121 14.1562 66.702 14.0042 66.8201 13.8755C66.9382 13.7467 67.0819 13.6441 67.242 13.5741C67.4021 13.5041 67.575 13.4683 67.7497 13.469C68.1167 13.4824 68.4663 13.6283 68.7339 13.8798C69.0015 14.1312 69.1689 14.4711 69.2051 14.8365Z" fill="white"/>
<path d="M123.856 25.2626L127.652 20.9717L129.628 26.7744L135.242 25.1496L134.119 30.9084L140.047 32.3826L136.127 36.5605L140.775 40.7384L135.11 42.2063L137.237 47.9713L131.34 46.3465L130.38 52.1492L125.832 47.8584L122.037 52.1492L120.061 46.3465L114.447 47.9713L115.57 42.2063L109.642 40.7384L113.562 36.5605L108.914 32.3826L114.578 30.9084L112.452 25.1496L118.349 26.7744L119.308 20.9717L123.856 25.2626Z" fill="#F5F5F5"/>
<path d="M121.159 36.686H122.163L122.307 38.3483C121.826 38.6857 121.251 38.8635 120.664 38.8565C120.074 38.8816 119.498 38.6796 119.053 38.292C118.608 37.9045 118.329 37.361 118.274 36.7738C118.241 36.4949 118.272 36.2124 118.363 35.9469C118.454 35.6814 118.604 35.4397 118.8 35.2394C118.997 35.0391 119.236 34.8853 119.5 34.7894C119.764 34.6934 120.046 34.6577 120.325 34.6848C120.662 34.6716 120.998 34.7302 121.31 34.8567C121.623 34.9833 121.905 35.1749 122.138 35.4188L121.473 36.0461C121.345 35.9061 121.188 35.7942 121.015 35.7175C120.841 35.6408 120.653 35.6011 120.463 35.6007C120.313 35.5877 120.163 35.6094 120.023 35.6641C119.883 35.7188 119.757 35.805 119.656 35.916C119.554 36.027 119.48 36.1599 119.438 36.3043C119.397 36.4487 119.389 36.6008 119.415 36.7487C119.432 37.066 119.573 37.364 119.808 37.5779C120.043 37.7917 120.353 37.904 120.67 37.8904C120.887 37.898 121.102 37.8528 121.297 37.7587L121.159 36.686Z" fill="#407BFF"/>
<path d="M126.209 37.8777L126.291 38.7497H123.066L122.715 34.7411H125.851L125.927 35.6194H123.9L123.963 36.2906H125.745L125.82 37.1438H124.038L124.101 37.8777H126.209Z" fill="#407BFF"/>
<path d="M127.501 35.6634H126.247L126.165 34.7664H129.76L129.835 35.6634H128.612L128.881 38.8H127.746L127.501 35.6634Z" fill="#407BFF"/>
<path d="M126.999 43.1346L127.075 44.0317H123.938L123.875 43.3228L125.249 41.9176C125.544 41.6228 125.575 41.4346 125.563 41.2903C125.55 41.1461 125.356 40.8763 125.011 40.8763C124.872 40.8703 124.734 40.9036 124.613 40.9724C124.492 41.0412 124.393 41.1427 124.327 41.2652L123.443 40.7948C123.601 40.5186 123.836 40.2934 124.118 40.1456C124.4 39.9978 124.719 39.9336 125.036 39.9604C125.958 39.9604 126.636 40.4372 126.698 41.1774C126.713 41.4173 126.669 41.6571 126.569 41.8759C126.47 42.0947 126.318 42.2856 126.128 42.432L125.463 43.1346H126.999Z" fill="#407BFF"/>
<path d="M121.266 32.3323C121.316 32.8718 120.902 33.1855 120.068 33.1855H118.399L118.129 30.0928H119.71C120.525 30.0928 120.965 30.419 120.965 30.8958C120.989 31.0316 120.967 31.1716 120.904 31.2941C120.84 31.4166 120.738 31.5147 120.613 31.5733C120.788 31.615 120.945 31.7108 121.063 31.8471C121.18 31.9834 121.251 32.1532 121.266 32.3323ZM119.051 30.7201L119.101 31.3475H119.729C120.022 31.3475 120.16 31.2471 120.143 31.0464C120.143 30.8519 119.967 30.7515 119.679 30.7515L119.051 30.7201ZM120.375 32.2382C120.375 32.025 120.193 31.9246 119.892 31.9246H119.189L119.239 32.5519H119.973C120.243 32.5519 120.394 32.4515 120.375 32.232V32.2382Z" fill="#407BFF"/>
<path d="M121.649 31.8054L121.498 30.0928H122.376L122.521 31.7803C122.564 32.3072 122.809 32.5205 123.148 32.5205C123.487 32.5205 123.712 32.3072 123.669 31.7803L123.518 30.0928H124.377L124.528 31.8054C124.569 31.9927 124.564 32.1871 124.514 32.3721C124.464 32.5572 124.37 32.7274 124.24 32.8684C124.11 33.0094 123.948 33.117 123.768 33.182C123.588 33.247 123.394 33.2676 123.204 33.2419C123.007 33.2556 122.808 33.2287 122.621 33.1629C122.434 33.0971 122.262 32.9938 122.117 32.8593C121.971 32.7248 121.854 32.5619 121.774 32.3807C121.693 32.1994 121.651 32.0037 121.649 31.8054Z" fill="#407BFF"/>
<path d="M126.78 32.0751L126.88 33.1855H126.002L125.908 32.0626L124.553 30.0928H125.462L126.303 31.3475L126.93 30.0928H127.777L126.78 32.0751Z" fill="#407BFF"/>
<path d="M130.481 30.0928L130.751 33.1855H129.854L129.647 30.7641H129.07L129.013 30.0928H130.481Z" fill="#407BFF"/>
<path d="M89.7874 40.638L89.16 39.2328C82.0275 39.559 81.005 36.8616 80.8419 36.0021C80.5659 34.4088 81.8769 32.9597 83.7652 32.7715C86.3685 32.5017 88.3257 34.8542 89.3482 36.4036C90.0383 35.5418 90.8997 34.8325 91.878 34.3207C92.8563 33.8089 93.9302 33.5056 95.0317 33.4302C95.72 33.381 96.4046 33.5663 96.9741 33.9558C97.5437 34.3454 97.9646 34.9163 98.1683 35.5756C98.3313 35.9535 98.3882 36.3687 98.3329 36.7765C98.2777 37.1844 98.1123 37.5694 97.8546 37.8904C96.3553 39.7723 91.5187 39.4022 90.0571 39.2516L89.7874 40.638ZM90.4147 37.7837C92.6103 37.9782 95.7594 37.8339 96.5623 36.8302C96.6878 36.6734 96.8195 36.5103 96.6502 35.9959C96.5671 35.6795 96.3699 35.4051 96.0965 35.2256C95.8232 35.046 95.493 34.9741 95.1697 35.0235C94.2176 35.1016 93.2945 35.3895 92.4669 35.8668C91.6393 36.344 90.9277 36.9987 90.3833 37.7837H90.4147ZM84.3109 34.346C84.2295 34.3398 84.1477 34.3398 84.0663 34.346C82.9936 34.4527 82.3098 35.2306 82.4164 35.8579C82.5231 36.4852 83.9659 37.7398 88.3822 37.6457C87.7109 36.5542 86.1803 34.346 84.2796 34.346H84.3109Z" fill="#263238"/>
<path d="M106.85 59.7521H75.7605L73.8911 38.3922H104.981L106.85 59.7521Z" fill="#407BFF"/>
<path opacity="0.1" d="M106.85 59.7521H75.7605L73.8911 38.3922H104.981L106.85 59.7521Z" fill="white"/>
<path opacity="0.2" d="M106.85 59.7522H75.7604L74.5371 45.7757H105.627L106.85 59.7522Z" fill="black"/>
<path d="M97.1329 38.3922H94.6111L96.4805 59.7521H99.0023L97.1329 38.3922Z" fill="#263238"/>
<path d="M81.9773 59.7521H80.1267L78.2573 38.3922H80.1142L81.9773 59.7521Z" fill="#263238"/>
<path opacity="0.2" d="M88.1123 59.7521H75.7605L73.8911 38.3922H86.2429L88.1123 59.7521Z" fill="black"/>
<path d="M115.808 45.8823C114.836 45.9889 111.611 46.2335 110.369 44.9601C110.166 44.76 110.015 44.5126 109.931 44.24C109.847 43.9673 109.831 43.6781 109.886 43.3981C109.913 43.1786 109.984 42.9666 110.093 42.7744C110.203 42.5822 110.349 42.4135 110.524 42.2782C110.699 42.1429 110.899 42.0436 111.113 41.986C111.326 41.9284 111.549 41.9137 111.768 41.9427C113.366 42.0797 114.858 42.7958 115.965 43.9564C116.473 42.9025 117.521 41.3154 119.309 41.4973C120.613 41.6228 121.674 42.6077 121.674 43.6867C121.674 44.2638 121.291 46.0893 116.429 45.8697L116.147 46.8232L115.808 45.8823ZM111.844 43.0029C111.31 43.0029 111.034 43.1785 110.959 43.6678C110.927 43.768 110.925 43.8751 110.953 43.9764C110.981 44.0776 111.038 44.1687 111.116 44.2387C111.775 44.9162 113.926 45.0103 115.388 44.866C114.487 43.8158 113.219 43.1494 111.844 43.0029ZM116.749 44.8033C119.748 44.8786 120.569 44.0693 120.569 43.5926C120.569 43.1158 120.017 42.6453 119.277 42.57H119.108C117.822 42.5638 117.05 44.0568 116.749 44.7782V44.8033Z" fill="#263238"/>
<path d="M106.85 59.7522H127.878L126.617 45.3052H105.583L106.85 59.7522Z" fill="#407BFF"/>
<path opacity="0.6" d="M106.85 59.7522H127.878L126.617 45.3052H105.583L106.85 59.7522Z" fill="white"/>
<path opacity="0.1" d="M106.85 59.7522H127.878L127.056 50.2923H106.022L106.85 59.7522Z" fill="black"/>
<path opacity="0.2" d="M119.522 59.7522H127.878L126.617 45.3052H118.261L119.522 59.7522Z" fill="white"/>
<path d="M110.89 45.3052H112.603L113.864 59.7522H112.157L110.89 45.3052Z" fill="#263238"/>
<path d="M123.675 59.7522H124.929L123.662 45.3052H122.407L123.675 59.7522Z" fill="#263238"/>
<path d="M218.493 213.971L213.97 209.529L208.318 222.025L211.63 224.177L218.493 213.971Z" fill="#FF8B7B"/>
<path opacity="0.2" d="M217.583 215.307L215.363 218.613L210.846 216.417L213.167 211.286L217.583 215.307Z" fill="black"/>
<path d="M242.143 227.075H242.049C241.183 227.011 240.34 226.767 239.574 226.36C238.807 225.953 238.133 225.391 237.595 224.71C233.009 218.864 230.343 210.012 227.426 204.204C227.09 203.514 226.702 202.852 226.265 202.221C226.156 202.68 226.02 203.133 225.858 203.576C224.047 208.628 221.242 213.265 217.608 217.214L211.8 213.343C211.8 213.343 219.058 195.478 219.842 193.721C226.19 179.425 241.49 196.789 247.167 206.989C247.936 208.335 248.615 209.731 249.2 211.167L262.775 211.612C263.754 219.403 260.272 228.499 242.143 227.075Z" fill="#407BFF"/>
<g opacity="0.4">
<path d="M242.143 227.075C241.256 227.01 240.391 226.761 239.605 226.344C238.819 225.927 238.128 225.352 237.576 224.654C233.022 218.801 230.362 209.987 227.451 204.197C227.115 203.508 226.727 202.845 226.291 202.215C226.181 202.674 226.045 203.127 225.883 203.57C224.072 208.621 221.267 213.259 217.634 217.208L211.825 213.337C211.825 213.337 219.083 195.471 219.867 193.715C226.215 179.418 241.516 196.782 247.193 206.983C247.962 208.329 248.641 209.724 249.225 211.16L262.8 211.606C263.754 219.403 260.272 228.499 242.143 227.075Z" fill="black"/>
</g>
<path d="M220.77 215.37L212.295 210.659L211.223 213.607L218.531 217.998L220.77 215.37Z" fill="#263238"/>
<path d="M208.895 218.544C206.932 219.171 204.692 219.761 199.944 218.939C198.89 218.745 197.993 221.229 200.326 222.176C202.66 223.123 212.578 226.128 212.615 226.134C212.861 226.203 213.123 226.172 213.346 226.049C213.569 225.925 213.734 225.72 213.807 225.476L215.106 220.244C215.131 220.127 215.113 220.005 215.056 219.9C214.998 219.795 214.904 219.714 214.792 219.673L209.937 218.575C209.603 218.446 209.236 218.435 208.895 218.544Z" fill="#263238"/>
<path d="M208.707 218.789C208.723 218.765 208.732 218.736 208.732 218.707C208.732 218.678 208.723 218.649 208.707 218.625C208.695 218.598 208.674 218.575 208.648 218.561C208.622 218.546 208.592 218.54 208.563 218.544C208.262 218.582 205.595 218.908 205.213 219.654C205.174 219.722 205.154 219.799 205.154 219.877C205.154 219.955 205.174 220.032 205.213 220.1C205.268 220.216 205.351 220.317 205.455 220.392C205.559 220.468 205.681 220.516 205.809 220.532C206.327 220.532 206.829 220.35 207.226 220.018C207.756 219.653 208.251 219.242 208.707 218.789ZM205.671 219.579C206.462 219.207 207.31 218.971 208.18 218.883C207.201 219.811 206.354 220.319 205.865 220.25C205.782 220.239 205.703 220.207 205.635 220.158C205.567 220.109 205.513 220.043 205.476 219.968C205.461 219.94 205.453 219.909 205.453 219.877C205.453 219.845 205.461 219.814 205.476 219.786C205.524 219.706 205.591 219.64 205.671 219.592V219.579Z" fill="#407BFF"/>
<path d="M208.751 218.719C208.763 218.699 208.769 218.675 208.769 218.65C208.769 218.626 208.763 218.602 208.751 218.581C208.707 218.531 207.685 217.264 206.706 217.17C206.566 217.155 206.424 217.168 206.29 217.209C206.155 217.25 206.03 217.318 205.922 217.408C205.614 217.659 205.608 217.91 205.702 218.036C205.991 218.663 207.892 218.939 208.663 218.801L208.713 218.77C208.73 218.756 208.743 218.739 208.751 218.719ZM206.123 217.572C206.276 217.464 206.464 217.417 206.649 217.44C207.307 217.625 207.891 218.011 208.318 218.544C207.471 218.581 206.104 218.28 205.928 217.917C205.928 217.885 205.872 217.791 206.072 217.622L206.141 217.578L206.123 217.572Z" fill="#407BFF"/>
<path d="M244.157 227.326C243.347 227.264 242.5 227.182 241.647 227.088C223.123 225.049 192.485 215.966 188.765 205.483C188.765 205.483 184.374 192.937 200.201 195.954C205 196.87 213.45 198.689 221.053 200.854C224.352 201.776 236.29 206.719 236.911 207.829L247.531 208.3L263.051 208.996C263.411 210.17 263.67 211.373 263.823 212.591C264.726 219.987 261.414 228.656 244.157 227.326Z" fill="#407BFF"/>
<g opacity="0.3">
<path d="M244.157 227.326C243.347 227.264 242.5 227.182 241.647 227.088C223.123 225.049 192.485 215.966 188.765 205.483C188.765 205.483 184.374 192.937 200.201 195.954C205 196.87 213.45 198.689 221.053 200.854C224.352 201.776 236.29 206.719 236.911 207.829L247.531 208.3L263.051 208.996C263.411 210.17 263.67 211.373 263.823 212.591C264.726 219.987 261.414 228.656 244.157 227.326Z" fill="black"/>
</g>
<path d="M254.771 143.266C259.846 164.194 256.157 162.468 254.896 163.121C255.448 164.118 257.048 164.658 257.957 163.968C258.39 163.593 258.729 163.121 258.946 162.592C259.164 162.063 259.255 161.49 259.212 160.919C259.181 159.784 258.472 147.802 256.703 143.354C256.595 142.95 256.337 142.602 255.981 142.382C255.611 142.194 254.689 142.877 254.771 143.266Z" fill="#263238"/>
<path d="M250.197 161.684C251.12 164.35 251.358 165.931 247.506 167.211C247.506 167.211 243.146 173.409 249.388 181.972C253 177.11 256.038 171.848 258.44 166.289C255.774 164.156 256.025 158.968 256.408 155.386L250.197 161.684Z" fill="#FF8B7B"/>
<path d="M243.83 167.782C244.601 166.591 245.782 165.723 247.149 165.341C249.482 164.664 258.371 165.059 259.206 165.743C260.067 166.394 260.685 167.315 260.962 168.359L243.83 167.782Z" fill="#263238"/>
<path opacity="0.2" d="M260.78 179.023C261.599 181.135 262.624 183.16 263.841 185.07L268.345 182.103C267.936 181.267 267.453 180.47 266.903 179.719C264.914 177.235 262.599 177.674 260.78 179.023Z" fill="black"/>
<path d="M260.836 191.664C260.836 191.664 261.062 188.853 261.175 187.134C261.288 185.415 261.395 183.697 261.457 181.972C261.52 180.246 261.558 178.509 261.608 176.784C261.608 176.326 261.608 175.855 261.639 175.391C261.651 174.376 262.052 173.404 262.76 172.676C263.467 171.948 264.427 171.518 265.441 171.477C266.005 171.453 266.567 171.55 267.09 171.761C267.614 171.973 268.086 172.293 268.475 172.702C268.864 173.111 269.161 173.598 269.347 174.131C269.532 174.664 269.601 175.231 269.55 175.793C269.311 178.503 268.991 181.532 268.922 182.586C268.797 184.393 268.584 186.193 268.37 188.006C268.157 189.819 267.856 191.62 267.511 193.433L267.36 194.01L260.836 191.664Z" fill="#FF8B7B"/>
<path d="M243.297 194.223L238.059 191.776C237.845 191.673 237.61 191.619 237.372 191.619C237.134 191.619 236.899 191.673 236.685 191.776L231.861 194.286C231.653 194.393 231.471 194.547 231.331 194.735C231.191 194.923 231.095 195.14 231.052 195.371C231.004 195.591 231.005 195.82 231.055 196.04C231.104 196.26 231.201 196.467 231.338 196.646C231.475 196.825 231.65 196.972 231.849 197.077C232.049 197.181 232.269 197.242 232.495 197.253L237.131 197.504L244.1 198.834C244.1 198.834 246.471 195.71 243.297 194.223Z" fill="#FF8B7B"/>
<path d="M261.376 190.829L243.297 194.223C243.297 194.223 243.491 199.135 244.1 198.815C244.514 198.602 255.053 198.42 261.872 198.326C263.411 198.303 264.881 197.686 265.975 196.603C267.068 195.52 267.7 194.055 267.737 192.517L261.376 190.829Z" fill="#FF8B7B"/>
<path d="M260.548 172.706C258.409 175.498 260.134 183.778 260.134 183.778L270.798 181.451C270.798 181.451 270.999 171.508 268.916 169.67C266.545 167.575 262.744 169.808 260.548 172.706Z" fill="#407BFF"/>
<g opacity="0.1">
<path d="M260.548 172.706C258.409 175.498 260.134 183.778 260.134 183.778L270.798 181.451C270.798 181.451 270.999 171.508 268.916 169.67C266.545 167.575 262.744 169.808 260.548 172.706Z" fill="black"/>
</g>
<path d="M239.633 199.787H241.578C241.625 199.79 241.672 199.783 241.716 199.767C241.761 199.752 241.802 199.727 241.837 199.696C241.872 199.665 241.9 199.626 241.92 199.584C241.94 199.542 241.952 199.495 241.954 199.449V197.567C241.952 197.52 241.94 197.474 241.92 197.431C241.9 197.389 241.872 197.351 241.837 197.319C241.802 197.288 241.761 197.263 241.716 197.248C241.672 197.232 241.625 197.225 241.578 197.228H240.185C240.106 197.225 240.027 197.248 239.962 197.293C239.896 197.338 239.847 197.403 239.822 197.479L239.276 199.361C239.263 199.413 239.263 199.468 239.275 199.521C239.287 199.574 239.312 199.623 239.346 199.665C239.381 199.706 239.425 199.739 239.475 199.76C239.525 199.782 239.579 199.791 239.633 199.787Z" fill="#263238"/>
<path d="M236.936 199.787H238.881C238.928 199.79 238.975 199.783 239.019 199.767C239.063 199.752 239.104 199.727 239.139 199.696C239.174 199.665 239.203 199.626 239.223 199.584C239.243 199.542 239.255 199.495 239.257 199.449V197.567C239.255 197.52 239.243 197.474 239.223 197.431C239.203 197.389 239.174 197.351 239.139 197.319C239.104 197.288 239.063 197.263 239.019 197.248C238.975 197.232 238.928 197.225 238.881 197.228H237.488C237.409 197.225 237.33 197.248 237.265 197.293C237.199 197.338 237.15 197.403 237.124 197.479L236.579 199.361C236.566 199.413 236.565 199.468 236.578 199.521C236.59 199.574 236.614 199.623 236.649 199.665C236.684 199.706 236.728 199.739 236.778 199.76C236.828 199.782 236.882 199.791 236.936 199.787Z" fill="#263238"/>
<path d="M234.245 199.787H236.196C236.29 199.791 236.381 199.757 236.45 199.694C236.52 199.63 236.561 199.542 236.566 199.449V197.567C236.561 197.473 236.52 197.385 236.45 197.321C236.381 197.258 236.29 197.224 236.196 197.228H234.797C234.718 197.225 234.641 197.248 234.576 197.294C234.512 197.339 234.464 197.404 234.439 197.479L233.887 199.361C233.874 199.413 233.874 199.468 233.886 199.521C233.899 199.574 233.923 199.623 233.958 199.665C233.993 199.706 234.037 199.739 234.087 199.76C234.137 199.782 234.191 199.791 234.245 199.787Z" fill="#263238"/>
<path d="M231.554 199.787H233.505C233.551 199.79 233.598 199.783 233.642 199.767C233.686 199.752 233.727 199.727 233.761 199.696C233.795 199.664 233.823 199.626 233.843 199.584C233.862 199.541 233.873 199.495 233.875 199.449V197.567C233.873 197.52 233.862 197.474 233.843 197.432C233.823 197.389 233.795 197.351 233.761 197.319C233.727 197.288 233.686 197.264 233.642 197.248C233.598 197.232 233.551 197.225 233.505 197.228H232.106C232.027 197.225 231.95 197.248 231.885 197.294C231.821 197.339 231.773 197.404 231.748 197.479L231.196 199.361C231.183 199.413 231.183 199.468 231.195 199.521C231.208 199.574 231.232 199.623 231.267 199.665C231.302 199.706 231.346 199.739 231.396 199.76C231.446 199.782 231.5 199.791 231.554 199.787Z" fill="#263238"/>
<path d="M228.869 199.787H230.814C230.86 199.79 230.907 199.783 230.951 199.767C230.995 199.752 231.035 199.727 231.07 199.696C231.104 199.664 231.132 199.626 231.152 199.584C231.171 199.541 231.182 199.495 231.184 199.449V197.567C231.182 197.52 231.171 197.474 231.152 197.432C231.132 197.389 231.104 197.351 231.07 197.319C231.035 197.288 230.995 197.264 230.951 197.248C230.907 197.232 230.86 197.225 230.814 197.228H229.415C229.336 197.225 229.259 197.248 229.194 197.294C229.13 197.339 229.082 197.404 229.057 197.479L228.505 199.361C228.493 199.414 228.494 199.469 228.507 199.522C228.52 199.574 228.546 199.623 228.581 199.665C228.616 199.706 228.66 199.738 228.71 199.76C228.76 199.781 228.815 199.79 228.869 199.787Z" fill="#263238"/>
<path d="M226.177 199.787H228.122C228.169 199.79 228.215 199.783 228.259 199.767C228.303 199.752 228.344 199.727 228.378 199.696C228.413 199.664 228.441 199.626 228.46 199.584C228.48 199.541 228.491 199.495 228.492 199.449V197.567C228.491 197.52 228.48 197.474 228.46 197.432C228.441 197.389 228.413 197.351 228.378 197.319C228.344 197.288 228.303 197.264 228.259 197.248C228.215 197.232 228.169 197.225 228.122 197.228H226.723C226.645 197.226 226.568 197.25 226.503 197.295C226.439 197.34 226.391 197.404 226.366 197.479L225.82 199.361C225.807 199.413 225.806 199.468 225.819 199.521C225.831 199.574 225.856 199.623 225.89 199.665C225.925 199.706 225.969 199.739 226.019 199.76C226.069 199.782 226.123 199.791 226.177 199.787Z" fill="#263238"/>
<path d="M223.487 199.787H225.431C225.478 199.79 225.525 199.783 225.57 199.767C225.614 199.752 225.655 199.727 225.69 199.696C225.725 199.665 225.753 199.626 225.773 199.584C225.794 199.542 225.805 199.495 225.808 199.449V197.567C225.805 197.52 225.794 197.474 225.773 197.431C225.753 197.389 225.725 197.351 225.69 197.319C225.655 197.288 225.614 197.263 225.57 197.248C225.525 197.232 225.478 197.225 225.431 197.228H224.032C223.954 197.226 223.877 197.25 223.813 197.295C223.748 197.34 223.7 197.404 223.675 197.479L223.129 199.361C223.116 199.413 223.116 199.468 223.128 199.521C223.14 199.574 223.165 199.623 223.2 199.665C223.235 199.706 223.279 199.739 223.329 199.76C223.378 199.782 223.433 199.791 223.487 199.787Z" fill="#263238"/>
<path d="M220.814 199.787H222.759C222.806 199.79 222.853 199.783 222.897 199.767C222.942 199.752 222.982 199.727 223.017 199.696C223.052 199.665 223.081 199.626 223.101 199.584C223.121 199.542 223.133 199.495 223.135 199.449V197.567C223.133 197.52 223.121 197.474 223.101 197.431C223.081 197.389 223.052 197.351 223.017 197.319C222.982 197.288 222.942 197.263 222.897 197.248C222.853 197.232 222.806 197.225 222.759 197.228H221.366C221.287 197.225 221.208 197.248 221.143 197.293C221.077 197.338 221.028 197.403 221.002 197.479L220.457 199.361C220.444 199.413 220.443 199.468 220.456 199.521C220.468 199.574 220.493 199.623 220.527 199.665C220.562 199.706 220.606 199.739 220.656 199.76C220.706 199.782 220.76 199.791 220.814 199.787Z" fill="#263238"/>
<path d="M218.104 199.787H220.055C220.149 199.791 220.24 199.757 220.309 199.694C220.378 199.63 220.42 199.542 220.425 199.449V197.567C220.42 197.473 220.378 197.385 220.309 197.321C220.24 197.258 220.149 197.224 220.055 197.228H218.656C218.577 197.225 218.5 197.248 218.435 197.294C218.371 197.339 218.323 197.404 218.298 197.479L217.746 199.361C217.733 199.413 217.733 199.468 217.745 199.521C217.758 199.574 217.782 199.623 217.817 199.665C217.852 199.706 217.896 199.739 217.946 199.76C217.996 199.782 218.05 199.791 218.104 199.787Z" fill="#263238"/>
<path d="M215.413 199.787H217.364C217.411 199.79 217.457 199.783 217.501 199.767C217.545 199.752 217.586 199.727 217.62 199.696C217.655 199.664 217.682 199.626 217.702 199.584C217.721 199.541 217.732 199.495 217.734 199.449V197.567C217.732 197.52 217.721 197.474 217.702 197.432C217.682 197.389 217.655 197.351 217.62 197.319C217.586 197.288 217.545 197.264 217.501 197.248C217.457 197.232 217.411 197.225 217.364 197.228H215.965C215.886 197.225 215.809 197.248 215.744 197.294C215.68 197.339 215.632 197.404 215.607 197.479L215.055 199.361C215.042 199.413 215.042 199.468 215.054 199.521C215.067 199.574 215.091 199.623 215.126 199.665C215.161 199.706 215.205 199.739 215.255 199.76C215.305 199.782 215.359 199.791 215.413 199.787Z" fill="#263238"/>
<path d="M212.728 199.787H214.673C214.719 199.79 214.766 199.783 214.81 199.767C214.854 199.752 214.894 199.727 214.929 199.696C214.963 199.664 214.991 199.626 215.011 199.584C215.03 199.541 215.041 199.495 215.043 199.449V197.567C215.041 197.52 215.03 197.474 215.011 197.432C214.991 197.389 214.963 197.351 214.929 197.319C214.894 197.288 214.854 197.264 214.81 197.248C214.766 197.232 214.719 197.225 214.673 197.228H213.286C213.207 197.225 213.13 197.248 213.066 197.294C213.001 197.339 212.953 197.404 212.929 197.479L212.377 199.361C212.365 199.413 212.366 199.467 212.378 199.518C212.391 199.57 212.415 199.618 212.449 199.659C212.482 199.7 212.525 199.733 212.573 199.755C212.622 199.778 212.675 199.788 212.728 199.787Z" fill="#263238"/>
<path d="M210.037 199.787H211.981C212.028 199.79 212.075 199.783 212.119 199.767C212.163 199.752 212.203 199.727 212.238 199.696C212.272 199.664 212.3 199.626 212.319 199.584C212.339 199.541 212.35 199.495 212.352 199.449V197.567C212.35 197.52 212.339 197.474 212.319 197.432C212.3 197.389 212.272 197.351 212.238 197.319C212.203 197.288 212.163 197.264 212.119 197.248C212.075 197.232 212.028 197.225 211.981 197.228H210.582C210.504 197.225 210.426 197.248 210.362 197.294C210.297 197.339 210.249 197.404 210.225 197.479L209.679 199.361C209.666 199.413 209.666 199.468 209.678 199.521C209.69 199.574 209.715 199.623 209.75 199.665C209.785 199.706 209.829 199.739 209.879 199.76C209.928 199.782 209.983 199.791 210.037 199.787Z" fill="#263238"/>
<path d="M207.346 199.787H209.29C209.337 199.79 209.384 199.783 209.429 199.767C209.473 199.752 209.514 199.727 209.549 199.696C209.584 199.665 209.612 199.626 209.632 199.584C209.653 199.542 209.664 199.495 209.667 199.449V197.567C209.664 197.52 209.653 197.474 209.632 197.431C209.612 197.389 209.584 197.351 209.549 197.319C209.514 197.288 209.473 197.263 209.429 197.248C209.384 197.232 209.337 197.225 209.29 197.228H207.891C207.813 197.226 207.736 197.25 207.672 197.295C207.607 197.34 207.559 197.404 207.534 197.479L206.988 199.361C206.975 199.413 206.975 199.468 206.987 199.521C206.999 199.574 207.024 199.623 207.059 199.665C207.093 199.706 207.138 199.739 207.187 199.76C207.237 199.782 207.291 199.791 207.346 199.787Z" fill="#263238"/>
<path d="M204.654 199.787H206.599C206.646 199.79 206.693 199.783 206.737 199.767C206.782 199.752 206.823 199.727 206.858 199.696C206.892 199.665 206.921 199.626 206.941 199.584C206.961 199.542 206.973 199.495 206.975 199.449V197.567C206.973 197.52 206.961 197.474 206.941 197.431C206.921 197.389 206.892 197.351 206.858 197.319C206.823 197.288 206.782 197.263 206.737 197.248C206.693 197.232 206.646 197.225 206.599 197.228H205.206C205.127 197.225 205.048 197.248 204.983 197.293C204.917 197.338 204.868 197.403 204.843 197.479L204.297 199.361C204.284 199.413 204.284 199.468 204.296 199.521C204.308 199.574 204.333 199.623 204.367 199.665C204.402 199.706 204.446 199.739 204.496 199.76C204.546 199.782 204.6 199.791 204.654 199.787Z" fill="#263238"/>
<path d="M201.994 199.787H203.945C204.039 199.791 204.131 199.757 204.2 199.694C204.269 199.63 204.311 199.542 204.316 199.449V197.567C204.311 197.473 204.269 197.385 204.2 197.321C204.131 197.258 204.039 197.224 203.945 197.228H202.547C202.468 197.224 202.39 197.247 202.325 197.292C202.26 197.338 202.212 197.403 202.189 197.479L201.637 199.361C201.624 199.413 201.624 199.468 201.636 199.521C201.648 199.574 201.673 199.623 201.708 199.665C201.742 199.706 201.787 199.739 201.836 199.76C201.886 199.782 201.94 199.791 201.994 199.787Z" fill="#263238"/>
<path d="M200.006 199.994C200.027 200.404 200.209 200.789 200.512 201.066C200.815 201.343 201.214 201.49 201.625 201.475H241.904C242.315 201.492 242.716 201.346 243.019 201.068C243.322 200.791 243.503 200.405 243.523 199.994C243.523 199.796 243.481 199.601 243.4 199.42C243.319 199.239 243.2 199.078 243.052 198.947C242.747 198.673 242.352 198.519 241.942 198.514H201.625C201.474 198.516 201.325 198.535 201.179 198.57C200.854 198.645 200.562 198.825 200.35 199.083C200.138 199.34 200.017 199.661 200.006 199.994Z" fill="#263238"/>
<path opacity="0.2" d="M200.006 199.994C200.027 200.404 200.209 200.789 200.512 201.066C200.815 201.343 201.214 201.49 201.625 201.475H241.904C242.315 201.492 242.716 201.346 243.019 201.068C243.322 200.791 243.503 200.405 243.523 199.994C243.523 199.796 243.481 199.601 243.4 199.42C243.319 199.239 243.2 199.078 243.052 198.947C242.747 198.673 242.352 198.519 241.942 198.514H201.625C201.474 198.516 201.325 198.535 201.179 198.57C200.854 198.645 200.562 198.825 200.35 199.083C200.138 199.34 200.017 199.661 200.006 199.994Z" fill="white"/>
<path d="M200.006 199.994C200.027 200.404 200.209 200.789 200.512 201.066C200.815 201.343 201.214 201.49 201.625 201.475H215.262C215.578 201.391 215.858 201.208 216.062 200.953C216.265 200.697 216.381 200.383 216.392 200.057C216.398 199.969 216.398 199.881 216.392 199.793C216.329 199.489 216.168 199.213 215.934 199.009C215.828 198.916 215.712 198.834 215.589 198.765L215.4 198.683C215.2 198.606 214.987 198.568 214.773 198.57H201.179C200.854 198.645 200.562 198.825 200.35 199.083C200.138 199.34 200.017 199.661 200.006 199.994Z" fill="#263238"/>
<path d="M246.741 166.477C250.707 166.403 254.673 166.612 258.61 167.104C261.062 167.393 263.497 167.812 265.905 168.359L266.125 168.409C267.031 168.669 267.797 169.277 268.256 170.099C268.716 170.922 268.831 171.893 268.578 172.8C263.239 191.519 262.932 197.924 262.75 207.967L236.635 206.462C236.19 202.253 237.996 197.962 237.482 191.664C236.164 175.586 234.571 176.062 235.01 172.932C234.615 168.553 243.548 166.558 246.741 166.477Z" fill="#407BFF"/>
<path d="M243.981 148.216C243.667 148.185 243.353 148.555 243.353 149.031C243.353 149.508 243.541 149.916 243.849 149.947C244.156 149.979 244.476 149.627 244.476 149.125C244.476 148.624 244.288 148.241 243.981 148.216Z" fill="#263238"/>
<path d="M242.996 147.827L244.112 148.253C243.51 148.774 242.996 147.827 242.996 147.827Z" fill="#263238"/>
<path d="M243.811 153.228C243.51 153.228 243.213 153.162 242.94 153.036C242.667 152.909 242.425 152.724 242.23 152.494C243.148 151.774 243.961 150.929 244.646 149.985L243.811 153.228Z" fill="#A02724"/>
<path d="M244.238 146.359C244.591 146.376 244.936 146.477 245.243 146.653C245.55 146.828 245.812 147.073 246.007 147.369V147.419C246.027 147.452 246.053 147.48 246.085 147.502C246.116 147.524 246.152 147.54 246.189 147.548C246.227 147.556 246.265 147.556 246.303 147.548C246.34 147.541 246.376 147.526 246.408 147.504C246.439 147.482 246.466 147.454 246.486 147.422C246.507 147.389 246.52 147.353 246.526 147.315C246.532 147.277 246.53 147.239 246.521 147.202C246.511 147.164 246.494 147.13 246.471 147.099C246.233 146.72 245.908 146.404 245.523 146.177C245.138 145.95 244.703 145.819 244.257 145.794C244.181 145.791 244.108 145.816 244.051 145.865C243.993 145.914 243.957 145.983 243.949 146.058C243.947 146.107 243.957 146.156 243.979 146.2C244.001 146.244 244.034 146.281 244.075 146.309C244.122 146.343 244.179 146.361 244.238 146.359Z" fill="#263238"/>
<path d="M260.761 148.743C259.908 154.558 259.707 157.067 256.464 159.853C255.634 160.593 254.664 161.159 253.611 161.518C252.559 161.877 251.445 162.021 250.335 161.942H250.298C249.638 161.886 248.988 161.743 248.366 161.515C247.83 161.312 247.317 161.054 246.835 160.743C245.984 160.179 245.264 159.44 244.723 158.574C244.182 157.708 243.832 156.737 243.698 155.725C242.87 150.33 244.395 141.679 250.335 139.816C251.644 139.399 253.038 139.324 254.385 139.597C255.731 139.87 256.986 140.482 258.029 141.375C259.073 142.268 259.871 143.414 260.348 144.702C260.825 145.99 260.965 147.379 260.755 148.737L260.761 148.743Z" fill="#FF8B7B"/>
<path d="M254.268 160.561C254.581 160.817 254.972 160.956 255.376 160.956C255.779 160.956 256.17 160.817 256.483 160.561C258.754 158.723 263.753 154.213 264.45 149.533C265.353 143.467 262.932 139.578 258.459 138.367C253.986 137.156 247.036 138.198 244.834 141.504C242.632 144.81 244.834 145.424 248.892 150.851C248.008 154.759 252.18 158.83 254.268 160.561Z" fill="#263238"/>
<path d="M248.911 148.743C247.468 149.025 246.872 151.026 246.923 152.312C246.979 153.749 248.089 154.752 249.338 153.899C249.803 153.577 250.201 153.167 250.508 152.691C250.815 152.215 251.025 151.684 251.126 151.127C251.206 150.813 251.207 150.484 251.128 150.17C251.048 149.856 250.891 149.566 250.67 149.329C250.45 149.092 250.173 148.914 249.866 148.811C249.558 148.709 249.23 148.685 248.911 148.743Z" fill="#FF8B7B"/>
<path d="M262.743 206.205L236.666 204.705C236.409 204.705 236.196 204.818 236.208 204.981L235.869 207.127C235.869 207.522 236.02 207.647 236.258 207.666L263.295 209.153C263.59 209.153 263.822 208.996 263.735 208.808L263.195 206.418C263.148 206.343 263.08 206.283 263 206.245C262.92 206.208 262.831 206.193 262.743 206.205Z" fill="#263238"/>
<path d="M259.795 209.021L259.638 205.96C259.638 205.872 259.745 205.822 259.883 205.809L260.592 205.853C260.651 205.849 260.709 205.865 260.758 205.898C260.807 205.931 260.844 205.979 260.862 206.035L261.012 209.084C261.012 209.178 260.906 209.228 260.768 209.235L260.059 209.197C260.001 209.206 259.941 209.194 259.892 209.161C259.843 209.128 259.809 209.078 259.795 209.021Z" fill="#407BFF"/>
<path d="M238.567 207.76L238.805 204.693C238.822 204.63 238.859 204.575 238.91 204.534C238.96 204.493 239.023 204.47 239.088 204.467L239.771 204.53C239.832 204.54 239.888 204.569 239.931 204.613C239.974 204.657 240.001 204.714 240.01 204.774L239.803 207.842C239.786 207.899 239.749 207.948 239.7 207.981C239.651 208.014 239.592 208.029 239.533 208.024L238.805 207.967C238.667 207.942 238.561 207.88 238.567 207.76Z" fill="#407BFF"/>
<path d="M249.112 208.413L249.169 205.182C249.169 205.088 249.281 205.05 249.426 205.044L250.122 205.132C250.266 205.132 250.373 205.239 250.379 205.326V208.532C250.379 208.62 250.26 208.657 250.122 208.657L249.382 208.614C249.225 208.595 249.106 208.507 249.112 208.413Z" fill="#407BFF"/>
<path d="M235.073 189.957C235.073 189.957 235.073 187.034 235.029 185.252C234.985 183.471 234.966 181.683 234.878 179.895C234.791 178.107 234.684 176.307 234.59 174.519C234.59 174.042 234.533 173.559 234.502 173.076C234.423 172.023 234.752 170.979 235.421 170.162C236.09 169.345 237.048 168.816 238.096 168.685C238.677 168.613 239.266 168.665 239.824 168.839C240.382 169.012 240.897 169.303 241.334 169.691C241.771 170.079 242.12 170.556 242.358 171.09C242.596 171.624 242.717 172.203 242.714 172.788C242.714 175.617 242.626 178.772 242.638 179.87C242.638 181.752 242.601 183.634 242.538 185.516C242.475 187.398 242.312 189.28 242.111 191.193L242.005 191.82L235.073 189.957Z" fill="#FF8B7B"/>
<path d="M217.408 193.771L212.584 191.984C212.384 191.91 212.17 191.884 211.958 191.905C211.746 191.927 211.542 191.997 211.361 192.109L207.264 194.706C207.09 194.819 206.943 194.969 206.834 195.146C206.726 195.323 206.658 195.522 206.637 195.729C206.614 195.926 206.634 196.126 206.696 196.315C206.757 196.504 206.859 196.678 206.993 196.824C207.128 196.97 207.292 197.086 207.475 197.163C207.658 197.241 207.856 197.278 208.055 197.272L212.189 197.153L218.462 197.824C218.462 197.824 220.344 194.857 217.408 193.771Z" fill="#FF8B7B"/>
<path d="M235.55 189.06L217.163 194.116C217.163 194.116 217.859 198.181 218.468 197.799C218.876 197.535 229.672 197.441 236.71 196.757C238.298 196.604 239.765 195.842 240.803 194.63C241.84 193.418 242.368 191.851 242.274 190.258L235.55 189.06Z" fill="#FF8B7B"/>
<path d="M237.275 168.503C233.297 170.084 232.024 177.762 233.962 181.921C241.867 180.322 244.771 182.028 244.683 182.235C245.064 180.378 245.16 178.475 244.966 176.589C244.905 174.233 243.994 171.977 242.4 170.241C240.744 168.572 239.408 167.531 237.275 168.503Z" fill="#263238"/>
<path d="M237.275 168.503C233.297 170.084 232.024 177.762 233.962 181.921C241.867 180.322 244.771 182.028 244.683 182.235C245.064 180.378 245.16 178.475 244.966 176.589C244.905 174.233 243.994 171.977 242.4 170.241C240.744 168.572 239.408 167.531 237.275 168.503Z" fill="#407BFF"/>
<path opacity="0.2" d="M250.298 161.941C249.638 161.886 248.988 161.742 248.366 161.515C247.83 161.312 247.317 161.053 246.835 160.743V160.699C247.58 160.926 248.379 160.906 249.112 160.643C249.302 160.535 249.527 160.503 249.739 160.555C249.959 160.649 250.041 160.913 250.097 161.151C250.153 161.389 250.222 161.678 250.298 161.941Z" fill="black"/>
<path d="M245.01 142.877C250.085 163.811 246.396 162.086 245.135 162.738C245.687 163.736 247.287 164.269 248.203 163.585C248.635 163.21 248.974 162.739 249.192 162.209C249.409 161.68 249.5 161.107 249.457 160.536C249.457 159.395 248.717 147.419 246.948 142.971C246.842 142.566 246.584 142.218 246.227 141.999C245.85 141.798 244.915 142.476 245.01 142.877Z" fill="#263238"/>
<path d="M264.431 145.205C263.572 146.07 262.141 145.782 260.981 145.418C259.736 145.084 258.546 144.571 257.449 143.894C256.905 143.548 256.434 143.098 256.065 142.569C255.696 142.04 255.435 141.444 255.297 140.814C255.172 139.868 255.407 138.91 255.955 138.13C256.504 137.351 257.326 136.806 258.258 136.604C258.301 135.817 258.584 135.061 259.07 134.439C259.556 133.818 260.22 133.36 260.975 133.129C261.755 132.938 262.574 132.987 263.326 133.269C264.078 133.551 264.728 134.053 265.19 134.71C269.531 135.638 268.327 139.923 268.182 140.481C268.106 140.768 267.946 141.026 267.723 141.221C267.499 141.417 267.222 141.541 266.928 141.579C267.147 142.865 265.736 145.004 264.431 145.205Z" fill="#263238"/>
</svg>
